<?xml version="1.0" encoding="us-ascii" standalone="no"?><svg xmlns="http://www.w3.org/2000/svg" xmlns:xlink="http://www.w3.org/1999/xlink" contentStyleType="text/css" height="986px" preserveAspectRatio="none" style="width:1487px;height:986px;background:#FFFFFF;" version="1.1" viewBox="0 0 1487 986" width="1487px" zoomAndPan="magnify"><defs/><g><line style="stroke:#181818;stroke-width:0.5;stroke-dasharray:5.0,5.0;" x1="31" x2="31" y1="36.2969" y2="951.0156"/><line style="stroke:#181818;stroke-width:0.5;stroke-dasharray:5.0,5.0;" x1="273" x2="273" y1="36.2969" y2="951.0156"/><line style="stroke:#181818;stroke-width:0.5;stroke-dasharray:5.0,5.0;" x1="526" x2="526" y1="36.2969" y2="951.0156"/><line style="stroke:#181818;stroke-width:0.5;stroke-dasharray:5.0,5.0;" x1="784.5" x2="784.5" y1="36.2969" y2="951.0156"/><line style="stroke:#181818;stroke-width:0.5;stroke-dasharray:5.0,5.0;" x1="1079.5" x2="1079.5" y1="36.2969" y2="951.0156"/><line style="stroke:#181818;stroke-width:0.5;stroke-dasharray:5.0,5.0;" x1="1435" x2="1435" y1="36.2969" y2="951.0156"/><rect fill="#E2E2F0" height="30.2969" rx="2.5" ry="2.5" style="stroke:#181818;stroke-width:0.5;" width="52" x="5" y="5"/><text fill="#000000" font-family="sans-serif" font-size="14" lengthAdjust="spacing" textLength="38" x="12" y="24.9951">Caller</text><rect fill="#E2E2F0" height="30.2969" rx="2.5" ry="2.5" style="stroke:#181818;stroke-width:0.5;" width="52" x="5" y="950.0156"/><text fill="#000000" font-family="sans-serif" font-size="14" lengthAdjust="spacing" textLength="38" x="12" y="970.0107">Caller</text><rect fill="#E2E2F0" height="30.2969" rx="2.5" ry="2.5" style="stroke:#181818;stroke-width:0.5;" width="74" x="236" y="5"/><text fill="#000000" font-family="sans-serif" font-size="14" lengthAdjust="spacing" textLength="60" x="243" y="24.9951">Interface</text><rect fill="#E2E2F0" height="30.2969" rx="2.5" ry="2.5" style="stroke:#181818;stroke-width:0.5;" width="74" x="236" y="950.0156"/><text fill="#000000" font-family="sans-serif" font-size="14" lengthAdjust="spacing" textLength="60" x="243" y="970.0107">Interface</text><rect fill="#E2E2F0" height="30.2969" rx="2.5" ry="2.5" style="stroke:#181818;stroke-width:0.5;" width="40" x="506" y="5"/><text fill="#000000" font-family="sans-serif" font-size="14" lengthAdjust="spacing" textLength="26" x="513" y="24.9951">Trie</text><rect fill="#E2E2F0" height="30.2969" rx="2.5" ry="2.5" style="stroke:#181818;stroke-width:0.5;" width="40" x="506" y="950.0156"/><text fill="#000000" font-family="sans-serif" font-size="14" lengthAdjust="spacing" textLength="26" x="513" y="970.0107">Trie</text><rect fill="#E2E2F0" height="30.2969" rx="2.5" ry="2.5" style="stroke:#181818;stroke-width:0.5;" width="65" x="752.5" y="5"/><text fill="#000000" font-family="sans-serif" font-size="14" lengthAdjust="spacing" textLength="51" x="759.5" y="24.9951">TrieLog</text><rect fill="#E2E2F0" height="30.2969" rx="2.5" ry="2.5" style="stroke:#181818;stroke-width:0.5;" width="65" x="752.5" y="950.0156"/><text fill="#000000" font-family="sans-serif" font-size="14" lengthAdjust="spacing" textLength="51" x="759.5" y="970.0107">TrieLog</text><rect fill="#E2E2F0" height="30.2969" rx="2.5" ry="2.5" style="stroke:#181818;stroke-width:0.5;" width="115" x="1022.5" y="5"/><text fill="#000000" font-family="sans-serif" font-size="14" lengthAdjust="spacing" textLength="101" x="1029.5" y="24.9951">BonsaiStorage</text><rect fill="#E2E2F0" height="30.2969" rx="2.5" ry="2.5" style="stroke:#181818;stroke-width:0.5;" width="115" x="1022.5" y="950.0156"/><text fill="#000000" font-family="sans-serif" font-size="14" lengthAdjust="spacing" textLength="101" x="1029.5" y="970.0107">BonsaiStorage</text><rect fill="#E2E2F0" height="30.2969" rx="2.5" ry="2.5" style="stroke:#181818;stroke-width:0.5;" width="80" x="1395" y="5"/><text fill="#000000" font-family="sans-serif" font-size="14" lengthAdjust="spacing" textLength="66" x="1402" y="24.9951">Database</text><rect fill="#E2E2F0" height="30.2969" rx="2.5" ry="2.5" style="stroke:#181818;stroke-width:0.5;" width="80" x="1395" y="950.0156"/><text fill="#000000" font-family="sans-serif" font-size="14" lengthAdjust="spacing" textLength="66" x="1402" y="970.0107">Database</text><rect fill="#EEEEEE" height="3" style="stroke:#EEEEEE;stroke-width:1.0;" width="1480" x="0" y="66.8633"/><line style="stroke:#000000;stroke-width:1.0;" x1="0" x2="1480" y1="66.8633" y2="66.8633"/><line style="stroke:#000000;stroke-width:1.0;" x1="0" x2="1480" y1="69.8633" y2="69.8633"/><rect fill="#EEEEEE" height="23.1328" style="stroke:#000000;stroke-width:2.0;" width="174" x="653" y="56.2969"/><text fill="#000000" font-family="sans-serif" font-size="13" font-weight="bold" lengthAdjust="spacing" textLength="155" x="659" y="72.3638">Processign a commit</text><polygon fill="#181818" points="261,106.5625,271,110.5625,261,114.5625,265,110.5625" style="stroke:#181818;stroke-width:1.0;"/><line style="stroke:#181818;stroke-width:1.0;" x1="31" x2="267" y1="110.5625" y2="110.5625"/><text fill="#000000" font-family="sans-serif" font-size="13" font-weight="bold" lengthAdjust="spacing" textLength="9" x="38" y="105.4966">1</text><text fill="#000000" font-family="sans-serif" font-size="13" lengthAdjust="spacing" textLength="205" x="51" y="105.4966">New commit of changes to save</text><polygon fill="#181818" points="514,135.6953,524,139.6953,514,143.6953,518,139.6953" style="stroke:#181818;stroke-width:1.0;"/><line style="stroke:#181818;stroke-width:1.0;" x1="273" x2="520" y1="139.6953" y2="139.6953"/><text fill="#000000" font-family="sans-serif" font-size="13" font-weight="bold" lengthAdjust="spacing" textLength="9" x="280" y="134.6294">2</text><text fill="#000000" font-family="sans-serif" font-size="13" lengthAdjust="spacing" textLength="216" x="293" y="134.6294">Modify the trie and save in the DB</text><polygon fill="#181818" points="1423,164.8281,1433,168.8281,1423,172.8281,1427,168.8281" style="stroke:#181818;stroke-width:1.0;"/><line style="stroke:#181818;stroke-width:1.0;" x1="526" x2="1429" y1="168.8281" y2="168.8281"/><text fill="#000000" font-family="sans-serif" font-size="13" font-weight="bold" lengthAdjust="spacing" textLength="9" x="533" y="163.7622">3</text><text fill="#000000" font-family="sans-serif" font-size="13" lengthAdjust="spacing" textLength="103" x="546" y="163.7622">Fetch the nodes</text><polygon fill="#181818" points="537,193.9609,527,197.9609,537,201.9609,533,197.9609" style="stroke:#181818;stroke-width:1.0;"/><line style="stroke:#181818;stroke-width:1.0;" x1="531" x2="1434" y1="197.9609" y2="197.9609"/><text fill="#000000" font-family="sans-serif" font-size="13" font-weight="bold" lengthAdjust="spacing" textLength="9" x="543" y="192.895">4</text><text fill="#000000" font-family="sans-serif" font-size="13" lengthAdjust="spacing" textLength="110" x="556" y="192.895">Return the nodes</text><polygon fill="#181818" points="1423,223.0938,1433,227.0938,1423,231.0938,1427,227.0938" style="stroke:#181818;stroke-width:1.0;"/><line style="stroke:#181818;stroke-width:1.0;" x1="526" x2="1429" y1="227.0938" y2="227.0938"/><text fill="#000000" font-family="sans-serif" font-size="13" font-weight="bold" lengthAdjust="spacing" textLength="9" x="533" y="222.0278">5</text><text fill="#000000" font-family="sans-serif" font-size="13" lengthAdjust="spacing" textLength="179" x="546" y="222.0278">Save all modifications to DB</text><polygon fill="#181818" points="773,252.2266,783,256.2266,773,260.2266,777,256.2266" style="stroke:#181818;stroke-width:1.0;"/><line style="stroke:#181818;stroke-width:1.0;" x1="526" x2="779" y1="256.2266" y2="256.2266"/><text fill="#000000" font-family="sans-serif" font-size="13" font-weight="bold" lengthAdjust="spacing" textLength="9" x="533" y="251.1606">6</text><text fill="#000000" font-family="sans-serif" font-size="13" lengthAdjust="spacing" textLength="222" x="546" y="251.1606">Save modifications in the Trie Logs</text><polygon fill="#181818" points="1423,281.3594,1433,285.3594,1423,289.3594,1427,285.3594" style="stroke:#181818;stroke-width:1.0;"/><line style="stroke:#181818;stroke-width:1.0;" x1="785" x2="1429" y1="285.3594" y2="285.3594"/><text fill="#000000" font-family="sans-serif" font-size="13" font-weight="bold" lengthAdjust="spacing" textLength="9" x="792" y="280.2935">7</text><text fill="#000000" font-family="sans-serif" font-size="13" lengthAdjust="spacing" textLength="222" x="805" y="280.2935">Save the Trie Logs in the database</text><polygon fill="#181818" points="1068,310.4922,1078,314.4922,1068,318.4922,1072,314.4922" style="stroke:#181818;stroke-width:1.0;"/><line style="stroke:#181818;stroke-width:1.0;" x1="785" x2="1074" y1="314.4922" y2="314.4922"/><text fill="#000000" font-family="sans-serif" font-size="13" font-weight="bold" lengthAdjust="spacing" textLength="9" x="792" y="309.4263">8</text><text fill="#000000" font-family="sans-serif" font-size="13" lengthAdjust="spacing" textLength="258" x="805" y="309.4263">Save the Trie Logs to the BonsaiStorage</text><polygon fill="#181818" points="1423,339.625,1433,343.625,1423,347.625,1427,343.625" style="stroke:#181818;stroke-width:1.0;"/><line style="stroke:#181818;stroke-width:1.0;" x1="1080" x2="1429" y1="343.625" y2="343.625"/><text fill="#000000" font-family="sans-serif" font-size="13" font-weight="bold" lengthAdjust="spacing" textLength="9" x="1087" y="338.5591">9</text><text fill="#000000" font-family="sans-serif" font-size="13" lengthAdjust="spacing" textLength="215" x="1100" y="338.5591">Save a snapshot every N batches</text><polygon fill="#181818" points="42,368.7578,32,372.7578,42,376.7578,38,372.7578" style="stroke:#181818;stroke-width:1.0;"/><line style="stroke:#181818;stroke-width:1.0;" x1="36" x2="525" y1="372.7578" y2="372.7578"/><text fill="#000000" font-family="sans-serif" font-size="13" font-weight="bold" lengthAdjust="spacing" textLength="18" x="48" y="367.6919">10</text><text fill="#000000" font-family="sans-serif" font-size="13" lengthAdjust="spacing" textLength="169" x="70" y="367.6919">Result of the modifications</text><rect fill="#EEEEEE" height="3" style="stroke:#EEEEEE;stroke-width:1.0;" width="1480" x="0" y="401.3242"/><line style="stroke:#000000;stroke-width:1.0;" x1="0" x2="1480" y1="401.3242" y2="401.3242"/><line style="stroke:#000000;stroke-width:1.0;" x1="0" x2="1480" y1="404.3242" y2="404.3242"/><rect fill="#EEEEEE" height="23.1328" style="stroke:#000000;stroke-width:2.0;" width="381" x="549.5" y="390.7578"/><text fill="#000000" font-family="sans-serif" font-size="13" font-weight="bold" lengthAdjust="spacing" textLength="362" x="555.5" y="406.8247">Asking for a specific state at a certain CommitID</text><polygon fill="#181818" points="261,441.0234,271,445.0234,261,449.0234,265,445.0234" style="stroke:#181818;stroke-width:1.0;"/><line style="stroke:#181818;stroke-width:1.0;" x1="31" x2="267" y1="445.0234" y2="445.0234"/><text fill="#000000" font-family="sans-serif" font-size="13" font-weight="bold" lengthAdjust="spacing" textLength="9" x="38" y="439.9575">1</text><text fill="#000000" font-family="sans-serif" font-size="13" lengthAdjust="spacing" textLength="105" x="51" y="439.9575">Ask for a state X</text><polygon fill="#181818" points="1068,470.1563,1078,474.1563,1068,478.1563,1072,474.1563" style="stroke:#181818;stroke-width:1.0;"/><line style="stroke:#181818;stroke-width:1.0;" x1="273" x2="1074" y1="474.1563" y2="474.1563"/><text fill="#000000" font-family="sans-serif" font-size="13" font-weight="bold" lengthAdjust="spacing" textLength="9" x="280" y="469.0903">2</text><text fill="#000000" font-family="sans-serif" font-size="13" lengthAdjust="spacing" textLength="106" x="293" y="469.0903">Ask for the state</text><line style="stroke:#181818;stroke-width:1.0;" x1="1080" x2="1122" y1="503.2891" y2="503.2891"/><line style="stroke:#181818;stroke-width:1.0;" x1="1122" x2="1122" y1="503.2891" y2="516.2891"/><line style="stroke:#181818;stroke-width:1.0;" x1="1081" x2="1122" y1="516.2891" y2="516.2891"/><polygon fill="#181818" points="1091,512.2891,1081,516.2891,1091,520.2891,1087,516.2891" style="stroke:#181818;stroke-width:1.0;"/><text fill="#000000" font-family="sans-serif" font-size="13" font-weight="bold" lengthAdjust="spacing" textLength="9" x="1087" y="498.2231">3</text><text fill="#000000" font-family="sans-serif" font-size="13" lengthAdjust="spacing" textLength="144" x="1100" y="498.2231">Is it my current state ?</text><polygon fill="#008000" points="42,541.4219,32,545.4219,42,549.4219,38,545.4219" style="stroke:#008000;stroke-width:1.0;"/><line style="stroke:#008000;stroke-width:1.0;" x1="36" x2="1079" y1="545.4219" y2="545.4219"/><text fill="#000000" font-family="sans-serif" font-size="13" font-weight="bold" lengthAdjust="spacing" textLength="9" x="48" y="540.356">4</text><text fill="#000000" font-family="sans-serif" font-size="13" lengthAdjust="spacing" textLength="104" x="61" y="540.356">Return the state</text><line style="stroke:#FF0000;stroke-width:1.0;" x1="1080" x2="1122" y1="574.5547" y2="574.5547"/><line style="stroke:#FF0000;stroke-width:1.0;" x1="1122" x2="1122" y1="574.5547" y2="587.5547"/><line style="stroke:#FF0000;stroke-width:1.0;" x1="1081" x2="1122" y1="587.5547" y2="587.5547"/><polygon fill="#FF0000" points="1091,583.5547,1081,587.5547,1091,591.5547,1087,587.5547" style="stroke:#FF0000;stroke-width:1.0;"/><text fill="#000000" font-family="sans-serif" font-size="13" font-weight="bold" lengthAdjust="spacing" textLength="9" x="1087" y="569.4888">4</text><text fill="#000000" font-family="sans-serif" font-size="13" lengthAdjust="spacing" textLength="271" x="1100" y="569.4888">Can we go to this state using the Trie Logs</text><line style="stroke:#008000;stroke-width:1.0;" x1="1080" x2="1122" y1="616.6875" y2="616.6875"/><line style="stroke:#008000;stroke-width:1.0;" x1="1122" x2="1122" y1="616.6875" y2="629.6875"/><line style="stroke:#008000;stroke-width:1.0;" x1="1081" x2="1122" y1="629.6875" y2="629.6875"/><polygon fill="#008000" points="1091,625.6875,1081,629.6875,1091,633.6875,1087,629.6875" style="stroke:#008000;stroke-width:1.0;"/><text fill="#000000" font-family="sans-serif" font-size="13" font-weight="bold" lengthAdjust="spacing" textLength="9" x="1087" y="611.6216">5</text><text fill="#000000" font-family="sans-serif" font-size="13" lengthAdjust="spacing" textLength="113" x="1100" y="611.6216">If yes, apply them</text><polygon fill="#181818" points="42,654.8203,32,658.8203,42,662.8203,38,658.8203" style="stroke:#181818;stroke-width:1.0;"/><line style="stroke:#181818;stroke-width:1.0;" x1="36" x2="1079" y1="658.8203" y2="658.8203"/><text fill="#000000" font-family="sans-serif" font-size="13" font-weight="bold" lengthAdjust="spacing" textLength="9" x="48" y="653.7544">6</text><text fill="#000000" font-family="sans-serif" font-size="13" lengthAdjust="spacing" textLength="104" x="61" y="653.7544">Return the state</text><polygon fill="#FF0000" points="1423,683.9531,1433,687.9531,1423,691.9531,1427,687.9531" style="stroke:#FF0000;stroke-width:1.0;"/><line style="stroke:#FF0000;stroke-width:1.0;" x1="1080" x2="1429" y1="687.9531" y2="687.9531"/><text fill="#000000" font-family="sans-serif" font-size="13" font-weight="bold" lengthAdjust="spacing" textLength="9" x="1087" y="682.8872">5</text><text fill="#000000" font-family="sans-serif" font-size="13" lengthAdjust="spacing" textLength="181" x="1100" y="682.8872">Ask for the closest snapshot</text><polygon fill="#181818" points="1091,713.0859,1081,717.0859,1091,721.0859,1087,717.0859" style="stroke:#181818;stroke-width:1.0;"/><line style="stroke:#181818;stroke-width:1.0;" x1="1085" x2="1434" y1="717.0859" y2="717.0859"/><text fill="#000000" font-family="sans-serif" font-size="13" font-weight="bold" lengthAdjust="spacing" textLength="9" x="1097" y="712.02">6</text><text fill="#000000" font-family="sans-serif" font-size="13" lengthAdjust="spacing" textLength="179" x="1110" y="712.02">Return the closest snapshot</text><line style="stroke:#181818;stroke-width:1.0;" x1="1080" x2="1122" y1="746.2188" y2="746.2188"/><line style="stroke:#181818;stroke-width:1.0;" x1="1122" x2="1122" y1="746.2188" y2="759.2188"/><line style="stroke:#181818;stroke-width:1.0;" x1="1081" x2="1122" y1="759.2188" y2="759.2188"/><polygon fill="#181818" points="1091,755.2188,1081,759.2188,1091,763.2188,1087,759.2188" style="stroke:#181818;stroke-width:1.0;"/><text fill="#000000" font-family="sans-serif" font-size="13" font-weight="bold" lengthAdjust="spacing" textLength="9" x="1087" y="741.1528">7</text><text fill="#000000" font-family="sans-serif" font-size="13" lengthAdjust="spacing" textLength="328" x="1100" y="741.1528">Is the closest snapshot exactly at the asked state ?</text><polygon fill="#008000" points="42,784.3516,32,788.3516,42,792.3516,38,788.3516" style="stroke:#008000;stroke-width:1.0;"/><line style="stroke:#008000;stroke-width:1.0;" x1="36" x2="1079" y1="788.3516" y2="788.3516"/><text fill="#000000" font-family="sans-serif" font-size="13" font-weight="bold" lengthAdjust="spacing" textLength="9" x="48" y="783.2856">8</text><text fill="#000000" font-family="sans-serif" font-size="13" lengthAdjust="spacing" textLength="167" x="61" y="783.2856">Return the snapshot state</text><polygon fill="#FF0000" points="1423,828.6172,1433,832.6172,1423,836.6172,1427,832.6172" style="stroke:#FF0000;stroke-width:1.0;"/><line style="stroke:#FF0000;stroke-width:1.0;" x1="1080" x2="1429" y1="832.6172" y2="832.6172"/><text fill="#000000" font-family="sans-serif" font-size="13" font-weight="bold" lengthAdjust="spacing" textLength="9" x="1087" y="819.9849">8</text><text fill="#000000" font-family="sans-serif" font-size="13" lengthAdjust="spacing" textLength="288" x="1100" y="812.4185">Ask for the trie logs to derive the asked state</text><text fill="#000000" font-family="sans-serif" font-size="13" lengthAdjust="spacing" textLength="118" x="1104" y="827.5513">from the snapshot</text><polygon fill="#181818" points="1091,857.75,1081,861.75,1091,865.75,1087,861.75" style="stroke:#181818;stroke-width:1.0;"/><line style="stroke:#181818;stroke-width:1.0;" x1="1085" x2="1434" y1="861.75" y2="861.75"/><text fill="#000000" font-family="sans-serif" font-size="13" font-weight="bold" lengthAdjust="spacing" textLength="9" x="1097" y="856.6841">9</text><text fill="#000000" font-family="sans-serif" font-size="13" lengthAdjust="spacing" textLength="122" x="1110" y="856.6841">Return the trie logs</text><line style="stroke:#181818;stroke-width:1.0;" x1="1080" x2="1122" y1="890.8828" y2="890.8828"/><line style="stroke:#181818;stroke-width:1.0;" x1="1122" x2="1122" y1="890.8828" y2="903.8828"/><line style="stroke:#181818;stroke-width:1.0;" x1="1081" x2="1122" y1="903.8828" y2="903.8828"/><polygon fill="#181818" points="1091,899.8828,1081,903.8828,1091,907.8828,1087,903.8828" style="stroke:#181818;stroke-width:1.0;"/><text fill="#000000" font-family="sans-serif" font-size="13" font-weight="bold" lengthAdjust="spacing" textLength="18" x="1087" y="885.8169">10</text><text fill="#000000" font-family="sans-serif" font-size="13" lengthAdjust="spacing" textLength="115" x="1109" y="885.8169">Apply the trie logs</text><polygon fill="#181818" points="42,929.0156,32,933.0156,42,937.0156,38,933.0156" style="stroke:#181818;stroke-width:1.0;"/><line style="stroke:#181818;stroke-width:1.0;" x1="36" x2="1079" y1="933.0156" y2="933.0156"/><text fill="#000000" font-family="sans-serif" font-size="13" font-weight="bold" lengthAdjust="spacing" textLength="18" x="48" y="927.9497">11</text><text fill="#000000" font-family="sans-serif" font-size="13" lengthAdjust="spacing" textLength="186" x="70" y="927.9497">Return the state (or an error)</text><!--SRC=[dLJ1Rjim3BtxAmZiiW7ROK07506oeKqm8C1Q3EiE0xOU69bsXDgI8T7jylUJ5DkHR6TDcrkeH_BnyT4D6fP2DgWOLbXLPE3uGzl5iYQ2RHIJAL1G11jY2VAdaGIG5lIn2UYRBYSW5qjmrrfPb7Ui3PRKuP9OWbuZunOjnLNxM9Ojb_3TQ47Mob81Wj1rBHcMoop3bhLgwwqJucFMAVBXSpJq0cxfgS_G1OWTgf8ii0QBZvGTaIujAB206vtBOW-y8s0VGPK7C4WLWklhB21Tna1y0L-9nIwyAvsJpOQdO-4VnArH4MQcp9rlv0Q1shEG0bawsJpVg6s_XGwUGZkM0Uj0XouUFTCe0VQPUQzyb9ZkSpRRKVI1TCjftjoeO1KsTgSPw97C7cvXYqx9I9rkhru_srPXZRvHCdNi1Ckw2QwviWzIbL1euziq93pUFIExlkoTH8RHJRqA_jYiWwVECPMht9SDrNwbHXghrSCzxP0mrMMSid7hOAZt85fZoDt8eT6NSURlDwKXKlU9J8FD3it6saJ_Bzo8aug6ylifenKgU28ezM7JqdQKMkj5JYrtakHap0BsPDy3DaqLJgwUIlEgmJwT7YooOBmOKMbBbWS_9XSyvXrHcUITizkvHA2_ADZ9uBpftz4-KFxAlVSbdzNfyiKwXMzYrLryJaPsNuAOxXy5XT5rmkLSFOVwpmjvrRlcVqadxGDl_GKh86EqUVSF]--></g></svg>