<?xml version="1.0" encoding="us-ascii" standalone="no"?><svg xmlns="http://www.w3.org/2000/svg" xmlns:xlink="http://www.w3.org/1999/xlink" contentStyleType="text/css" height="436px" preserveAspectRatio="none" style="width:798px;height:436px;background:#FFFFFF;" version="1.1" viewBox="0 0 798 436" width="798px" zoomAndPan="magnify"><defs/><g><!--cluster t--><g id="cluster_t"><path d="M401.01,99 L433.01,99 A3.75,3.75 0 0 1 435.51,101.5 L442.51,121.2969 L555.46,121.2969 A2.5,2.5 0 0 1 557.96,123.7969 L557.96,242.5 A2.5,2.5 0 0 1 555.46,245 L401.01,245 A2.5,2.5 0 0 1 398.51,242.5 L398.51,101.5 A2.5,2.5 0 0 1 401.01,99 " fill="none" style="stroke:#000000;stroke-width:1.5;"/><line style="stroke:#000000;stroke-width:1.5;" x1="398.51" x2="442.51" y1="121.2969" y2="121.2969"/><text fill="#000000" font-family="sans-serif" font-size="14" font-weight="bold" lengthAdjust="spacing" textLength="31" x="402.51" y="113.9951">Trie</text></g><!--cluster dbi--><g id="cluster_dbi"><path d="M608.73,96 L758.73,96 A3.75,3.75 0 0 1 761.23,98.5 L768.23,118.2969 L788.85,118.2969 A2.5,2.5 0 0 1 791.35,120.7969 L791.35,312.5 A2.5,2.5 0 0 1 788.85,315 L608.73,315 A2.5,2.5 0 0 1 606.23,312.5 L606.23,98.5 A2.5,2.5 0 0 1 608.73,96 " fill="none" style="stroke:#000000;stroke-width:1.5;"/><line style="stroke:#000000;stroke-width:1.5;" x1="606.23" x2="768.23" y1="118.2969" y2="118.2969"/><text fill="#000000" font-family="sans-serif" font-size="14" font-weight="bold" lengthAdjust="spacing" textLength="149" x="610.23" y="110.9951">Database Interface</text></g><!--cluster tl--><g id="cluster_tl"><path d="M380.74,269 L446.74,269 A3.75,3.75 0 0 1 449.24,271.5 L456.24,291.2969 L575.73,291.2969 A2.5,2.5 0 0 1 578.23,293.7969 L578.23,426.5 A2.5,2.5 0 0 1 575.73,429 L380.74,429 A2.5,2.5 0 0 1 378.24,426.5 L378.24,271.5 A2.5,2.5 0 0 1 380.74,269 " fill="none" style="stroke:#000000;stroke-width:1.5;"/><line style="stroke:#000000;stroke-width:1.5;" x1="378.24" x2="456.24" y1="291.2969" y2="291.2969"/><text fill="#000000" font-family="sans-serif" font-size="14" font-weight="bold" lengthAdjust="spacing" textLength="65" x="382.24" y="283.9951">Trie Log</text></g><!--cluster a--><g id="cluster_a"><path d="M108,6 L223,6 A3.75,3.75 0 0 1 225.5,8.5 L232.5,28.2969 L347.74,28.2969 A2.5,2.5 0 0 1 350.24,30.7969 L350.24,301.5 A2.5,2.5 0 0 1 347.74,304 L108,304 A2.5,2.5 0 0 1 105.5,301.5 L105.5,8.5 A2.5,2.5 0 0 1 108,6 " fill="none" style="stroke:#000000;stroke-width:1.5;"/><line style="stroke:#000000;stroke-width:1.5;" x1="105.5" x2="232.5" y1="28.2969" y2="28.2969"/><text fill="#000000" font-family="sans-serif" font-size="14" font-weight="bold" lengthAdjust="spacing" textLength="114" x="109.5" y="20.9951">BonsaiStorage</text></g><g id="elem_t_crud"><ellipse cx="478.2348" cy="149.005" fill="#F1F1F1" rx="63.7248" ry="15.145" style="stroke:#181818;stroke-width:0.5;"/><text fill="#000000" font-family="sans-serif" font-size="14" lengthAdjust="spacing" textLength="75" x="437.7348" y="152.7525">CRUD data</text></g><g id="elem_t_commit"><ellipse cx="478.2251" cy="213.9974" fill="#F1F1F1" rx="49.6151" ry="14.6874" style="stroke:#181818;stroke-width:0.5;"/><text fill="#000000" font-family="sans-serif" font-size="14" lengthAdjust="spacing" textLength="53" x="448.7251" y="217.7449">Commit</text></g><g id="elem_dbi_crudKV"><ellipse cx="698.7912" cy="214.0022" fill="#F1F1F1" rx="76.5612" ry="17.7122" style="stroke:#181818;stroke-width:0.5;"/><text fill="#000000" font-family="sans-serif" font-size="14" lengthAdjust="spacing" textLength="110" x="640.7912" y="217.7498">CRUD key/value</text></g><g id="elem_dbi_addTrieLog"><ellipse cx="698.7933" cy="283.0047" fill="#F1F1F1" rx="67.5233" ry="15.9047" style="stroke:#181818;stroke-width:0.5;"/><text fill="#000000" font-family="sans-serif" font-size="14" lengthAdjust="spacing" textLength="86" x="652.7933" y="286.7522">Add a trielog</text></g><g id="elem_dbi_getTrieLog"><ellipse cx="698.79" cy="146.004" fill="#F1F1F1" rx="65.42" ry="15.484" style="stroke:#181818;stroke-width:0.5;"/><text fill="#000000" font-family="sans-serif" font-size="14" lengthAdjust="spacing" textLength="80" x="655.79" y="149.7516">Get trielogs</text></g><g id="elem_tl_save2DB"><ellipse cx="478.2263" cy="395.0013" fill="#F1F1F1" rx="76.9563" ry="17.7913" style="stroke:#181818;stroke-width:0.5;"/><text fill="#000000" font-family="sans-serif" font-size="14" lengthAdjust="spacing" textLength="111" x="419.8375" y="398.7201">Save to databse</text></g><g id="elem_tl_saveModification"><ellipse cx="478.225" cy="322.999" fill="#F1F1F1" rx="83.995" ry="19.199" style="stroke:#181818;stroke-width:0.5;"/><text fill="#000000" font-family="sans-serif" font-size="14" lengthAdjust="spacing" textLength="128" x="413.9635" y="325.9356">Save modifications</text></g><g id="elem_a_getStateAtX"><ellipse cx="227.8679" cy="65.0036" fill="#F1F1F1" rx="106.3679" ry="23.6736" style="stroke:#181818;stroke-width:0.5;"/><text fill="#000000" font-family="sans-serif" font-size="14" lengthAdjust="spacing" textLength="178" x="138.8679" y="67.8503">Go to state at CommitID X</text></g><g id="elem_a_getRootHash"><ellipse cx="227.8668" cy="140.9974" fill="#F1F1F1" rx="72.6868" ry="16.9374" style="stroke:#181818;stroke-width:0.5;"/><text fill="#000000" font-family="sans-serif" font-size="14" lengthAdjust="spacing" textLength="100" x="174.8668" y="144.7449">Get Root hash</text></g><g id="elem_a_crud"><ellipse cx="227.8748" cy="208.005" fill="#F1F1F1" rx="63.7248" ry="15.145" style="stroke:#181818;stroke-width:0.5;"/><text fill="#000000" font-family="sans-serif" font-size="14" lengthAdjust="spacing" textLength="75" x="187.3748" y="211.7525">CRUD data</text></g><g id="elem_a_commit"><ellipse cx="227.8651" cy="272.9974" fill="#F1F1F1" rx="49.6151" ry="14.6874" style="stroke:#181818;stroke-width:0.5;"/><text fill="#000000" font-family="sans-serif" font-size="14" lengthAdjust="spacing" textLength="53" x="198.3651" y="276.7449">Commit</text></g><!--entity caller--><g id="elem_caller"><ellipse cx="33" cy="152.85" fill="#F1F1F1" rx="16" ry="16" style="stroke:#181818;stroke-width:1.5;"/><path d="M33,172.85 C37,172.85 40,172.85 44,168.85 C52,168.85 60,176.85 60,184.85 L60,188.85 C60,192.85 56,196.85 52,196.85 L14,196.85 C10,196.85 6,192.85 6,188.85 L6,184.85 C6,176.85 14,168.85 22,168.85 C26,172.85 29,172.85 33,172.85 " fill="#F1F1F1" style="stroke:#181818;stroke-width:1.5;"/><text fill="#000000" font-family="sans-serif" font-size="14" lengthAdjust="spacing" textLength="38" x="14" y="211.3451">Caller</text></g><!--link caller to a_getRootHash--><g id="link_caller_a_getRootHash"><path d="M61.63,170.13 C89.55,165.21 127.6011,158.5019 163.1611,152.2319 " fill="none" id="caller-to-a_getRootHash" style="stroke:#181818;stroke-width:1.0;"/><polygon fill="#181818" points="169.07,151.19,159.5121,148.8136,164.146,152.0582,160.9013,156.692,169.07,151.19" style="stroke:#181818;stroke-width:1.0;"/></g><!--link caller to a_getStateAtX--><g id="link_caller_a_getStateAtX"><path d="M61.76,138.63 C71.96,127.21 84.28,115.41 97.5,107 C114.13,96.41 127.9795,90.1319 146.7695,83.9619 " fill="none" id="caller-to-a_getStateAtX" style="stroke:#181818;stroke-width:1.0;"/><polygon fill="#181818" points="152.47,82.09,142.6713,81.0974,147.7196,83.6499,145.1671,88.6982,152.47,82.09" style="stroke:#181818;stroke-width:1.0;"/></g><!--link a_getStateAtX to dbi_getTrieLog--><g id="link_a_getStateAtX_dbi_getTrieLog"><path d="M322.23,76.28 C394.59,85.64 497.19,100.27 586.23,118 C609.04,122.54 628.3969,127.2254 649.0269,132.6454 " fill="none" id="a_getStateAtX-to-dbi_getTrieLog" style="stroke:#181818;stroke-width:1.0;"/><polygon fill="#181818" points="654.83,134.17,647.1418,128.0144,649.9941,132.8995,645.109,135.7518,654.83,134.17" style="stroke:#181818;stroke-width:1.0;"/></g><!--link caller to a_crud--><g id="link_caller_a_crud"><path d="M61.63,179.73 C91.21,184.79 132.9062,191.9166 169.4362,198.1766 " fill="none" id="caller-to-a_crud" style="stroke:#181818;stroke-width:1.0;"/><polygon fill="#181818" points="175.35,199.19,167.1549,193.7273,170.4218,198.3455,165.8037,201.6124,175.35,199.19" style="stroke:#181818;stroke-width:1.0;"/></g><!--link a_crud to t_crud--><g id="link_a_crud_t_crud"><path d="M274.13,197.25 C318.91,186.61 381.2123,171.8061 426.0223,161.1661 " fill="none" id="a_crud-to-t_crud" style="stroke:#181818;stroke-width:1.0;"/><polygon fill="#181818" points="431.86,159.78,422.1794,157.9674,426.9953,160.9351,424.0276,165.751,431.86,159.78" style="stroke:#181818;stroke-width:1.0;"/></g><!--link a_crud to tl_saveModification--><g id="link_a_crud_tl_saveModification"><path d="M280.66,216.83 C304.9,222.06 333.76,229.88 358.24,241 C394.78,257.61 427.4721,281.7079 450.3421,300.2779 " fill="none" id="a_crud-to-tl_saveModification" style="stroke:#181818;stroke-width:1.0;"/><polygon fill="#181818" points="455,304.06,450.5346,295.2816,451.1184,300.9083,445.4918,301.4921,455,304.06" style="stroke:#181818;stroke-width:1.0;"/></g><!--link caller to a_commit--><g id="link_caller_a_commit"><path d="M61.92,211.17 C72.05,222.18 84.28,233.37 97.5,241 C122.95,255.69 149.0622,262.6903 174.8922,267.0103 " fill="none" id="caller-to-a_commit" style="stroke:#181818;stroke-width:1.0;"/><polygon fill="#181818" points="180.81,268,172.5931,262.5702,175.8785,267.1752,171.2735,270.4606,180.81,268" style="stroke:#181818;stroke-width:1.0;"/></g><!--link a_commit to t_commit--><g id="link_a_commit_t_commit"><path d="M267.67,263.78 C314.33,252.7 386.3226,235.5972 432.8626,224.5372 " fill="none" id="a_commit-to-t_commit" style="stroke:#181818;stroke-width:1.0;"/><polygon fill="#181818" points="438.7,223.15,429.019,221.3392,433.8355,224.306,430.8687,229.1225,438.7,223.15" style="stroke:#181818;stroke-width:1.0;"/></g><!--link a_commit to tl_save2DB--><g id="link_a_commit_tl_save2DB"><path d="M247.72,286.61 C274.09,305.17 323.95,338.55 370.24,360 C388.32,368.38 403.2512,373.8566 421.5612,379.5566 " fill="none" id="a_commit-to-tl_save2DB" style="stroke:#181818;stroke-width:1.0;"/><polygon fill="#181818" points="427.29,381.34,419.8857,374.8457,422.516,379.8538,417.5078,382.4841,427.29,381.34" style="stroke:#181818;stroke-width:1.0;"/></g><!--link t_commit to dbi_crudKV--><g id="link_t_commit_dbi_crudKV"><path d="M528.28,214 C555.84,214 584.84,214 615.87,214 " fill="none" id="t_commit-to-dbi_crudKV" style="stroke:#181818;stroke-width:1.0;"/><polygon fill="#181818" points="621.87,214,612.87,210,616.87,214,612.87,218,621.87,214" style="stroke:#181818;stroke-width:1.0;"/></g><!--link tl_save2DB to dbi_addTrieLog--><g id="link_tl_save2DB_dbi_addTrieLog"><path d="M530.49,381.52 C548.56,375.92 568.71,368.68 586.23,360 C621.23,342.65 653.0562,319.1674 674.4062,302.1674 " fill="none" id="tl_save2DB-to-dbi_addTrieLog" style="stroke:#181818;stroke-width:1.0;"/><polygon fill="#181818" points="679.1,298.43,669.5677,300.907,675.1885,301.5445,674.551,307.1653,679.1,298.43" style="stroke:#181818;stroke-width:1.0;"/></g><!--SRC=[VL91Ri8m4Bpx5Ilkg58VK0c8H57fXRGLDxJO9bXnCB8NAbJnzzeEIPn0Ux8zCzvTprZB7G4PiAhO4mXb9ITb3ioLwd14YnKW9sDpkcW9-2sTgIHZ4OCPQYqje0CUTumTaPTOI1XzM2L7WI7uOG0d9pawZyzMdna89Ap93RSdqUDDLIbgo7XWrwHkvgzkWt9n86btoEikOgiUz2dbvUcC-jHgOhkthrGu4G8Go8-hJT7gK8ZmWgKfKkrSKgDqhRIGr4Yl0mDWUIj9kZzTZcSPJ0z6RDtDABrn7dxEfdVAoWYrKnn3C2uLloT4h_lK2r7bFYH_Z3UmFy7SXFwEa7og1BNjYmpMjJYyAW_aXDP31rR64EpHxJjfW5uzydVI-5_Ic2HT_oGOZry6fU-OThxUAVA3NFfNuo3r4X6wHnwusozHZzjicZAFq2vLIl7aCpBMYLgk-u2_]--></g></svg>