<?xml version="1.0" encoding="us-ascii" standalone="no"?><svg xmlns="http://www.w3.org/2000/svg" xmlns:xlink="http://www.w3.org/1999/xlink" contentStyleType="text/css" height="525px" preserveAspectRatio="none" style="width:979px;height:525px;background:#FFFFFF;" version="1.1" viewBox="0 0 979 525" width="979px" zoomAndPan="magnify"><defs/><g><!--cluster hli--><g id="cluster_hli"><path d="M108,6 L268,6 A3.75,3.75 0 0 1 270.5,8.5 L277.5,28.2969 L304.72,28.2969 A2.5,2.5 0 0 1 307.22,30.7969 L307.22,233.5 A2.5,2.5 0 0 1 304.72,236 L108,236 A2.5,2.5 0 0 1 105.5,233.5 L105.5,8.5 A2.5,2.5 0 0 1 108,6 " fill="none" style="stroke:#000000;stroke-width:1.5;"/><line style="stroke:#000000;stroke-width:1.5;" x1="105.5" x2="277.5" y1="28.2969" y2="28.2969"/><text fill="#000000" font-family="sans-serif" font-size="14" font-weight="bold" lengthAdjust="spacing" textLength="159" x="109.5" y="20.9951">High-Level Interface</text></g><!--cluster t--><g id="cluster_t"><path d="M581.72,253 L613.72,253 A3.75,3.75 0 0 1 616.22,255.5 L623.22,275.2969 L736.17,275.2969 A2.5,2.5 0 0 1 738.67,277.7969 L738.67,331.5 A2.5,2.5 0 0 1 736.17,334 L581.72,334 A2.5,2.5 0 0 1 579.22,331.5 L579.22,255.5 A2.5,2.5 0 0 1 581.72,253 " fill="none" style="stroke:#000000;stroke-width:1.5;"/><line style="stroke:#000000;stroke-width:1.5;" x1="579.22" x2="623.22" y1="275.2969" y2="275.2969"/><text fill="#000000" font-family="sans-serif" font-size="14" font-weight="bold" lengthAdjust="spacing" textLength="31" x="583.22" y="267.9951">Trie</text></g><!--cluster dbi--><g id="cluster_dbi"><path d="M789.44,165 L939.44,165 A3.75,3.75 0 0 1 941.94,167.5 L948.94,187.2969 L969.56,187.2969 A2.5,2.5 0 0 1 972.06,189.7969 L972.06,382.5 A2.5,2.5 0 0 1 969.56,385 L789.44,385 A2.5,2.5 0 0 1 786.94,382.5 L786.94,167.5 A2.5,2.5 0 0 1 789.44,165 " fill="none" style="stroke:#000000;stroke-width:1.5;"/><line style="stroke:#000000;stroke-width:1.5;" x1="786.94" x2="948.94" y1="187.2969" y2="187.2969"/><text fill="#000000" font-family="sans-serif" font-size="14" font-weight="bold" lengthAdjust="spacing" textLength="149" x="790.94" y="179.9951">Database Interface</text></g><!--cluster tl--><g id="cluster_tl"><path d="M561.45,358 L627.45,358 A3.75,3.75 0 0 1 629.95,360.5 L636.95,380.2969 L756.44,380.2969 A2.5,2.5 0 0 1 758.94,382.7969 L758.94,515.5 A2.5,2.5 0 0 1 756.44,518 L561.45,518 A2.5,2.5 0 0 1 558.95,515.5 L558.95,360.5 A2.5,2.5 0 0 1 561.45,358 " fill="none" style="stroke:#000000;stroke-width:1.5;"/><line style="stroke:#000000;stroke-width:1.5;" x1="558.95" x2="636.95" y1="380.2969" y2="380.2969"/><text fill="#000000" font-family="sans-serif" font-size="14" font-weight="bold" lengthAdjust="spacing" textLength="65" x="562.95" y="372.9951">Trie Log</text></g><!--cluster a--><g id="cluster_a"><path d="M337.72,6 L437.72,6 A3.75,3.75 0 0 1 440.22,8.5 L447.22,28.2969 L741.77,28.2969 A2.5,2.5 0 0 1 744.27,30.7969 L744.27,226.5 A2.5,2.5 0 0 1 741.77,229 L337.72,229 A2.5,2.5 0 0 1 335.22,226.5 L335.22,8.5 A2.5,2.5 0 0 1 337.72,6 " fill="none" style="stroke:#000000;stroke-width:1.5;"/><line style="stroke:#000000;stroke-width:1.5;" x1="335.22" x2="447.22" y1="28.2969" y2="28.2969"/><text fill="#000000" font-family="sans-serif" font-size="14" font-weight="bold" lengthAdjust="spacing" textLength="99" x="339.22" y="20.9951">Accumulator</text></g><g id="elem_hli_getRootHash"><ellipse cx="206.3649" cy="58.001" fill="#F1F1F1" rx="70.8049" ry="16.561" style="stroke:#181818;stroke-width:0.5;"/><text fill="#000000" font-family="sans-serif" font-size="14" lengthAdjust="spacing" textLength="95" x="155.8649" y="61.7485">Get root hash</text></g><g id="elem_hli_getStateAtX"><ellipse cx="206.3558" cy="128.0032" fill="#F1F1F1" rx="81.8658" ry="18.7732" style="stroke:#181818;stroke-width:0.5;"/><text fill="#000000" font-family="sans-serif" font-size="14" lengthAdjust="spacing" textLength="123" x="143.8705" y="131.1763">Get state at slot X</text></g><g id="elem_hli_processNewBlock"><ellipse cx="206.3592" cy="201.0018" fill="#F1F1F1" rx="84.8592" ry="19.3718" style="stroke:#181818;stroke-width:0.5;"/><text fill="#000000" font-family="sans-serif" font-size="14" lengthAdjust="spacing" textLength="130" x="141.3592" y="203.8485">Process new block</text></g><g id="elem_t_crud"><ellipse cx="658.9448" cy="303.005" fill="#F1F1F1" rx="63.7248" ry="15.145" style="stroke:#181818;stroke-width:0.5;"/><text fill="#000000" font-family="sans-serif" font-size="14" lengthAdjust="spacing" textLength="75" x="618.4448" y="306.7525">CRUD data</text></g><g id="elem_dbi_crudKV"><ellipse cx="879.5012" cy="284.0022" fill="#F1F1F1" rx="76.5612" ry="17.7122" style="stroke:#181818;stroke-width:0.5;"/><text fill="#000000" font-family="sans-serif" font-size="14" lengthAdjust="spacing" textLength="110" x="821.5012" y="287.7498">CRUD key/value</text></g><g id="elem_dbi_addTrieLog"><ellipse cx="879.5033" cy="353.0047" fill="#F1F1F1" rx="67.5233" ry="15.9047" style="stroke:#181818;stroke-width:0.5;"/><text fill="#000000" font-family="sans-serif" font-size="14" lengthAdjust="spacing" textLength="86" x="833.5033" y="356.7522">Add a trielog</text></g><g id="elem_dbi_getTrieLog"><ellipse cx="879.5042" cy="216.0028" fill="#F1F1F1" rx="66.8142" ry="15.7628" style="stroke:#181818;stroke-width:0.5;"/><text fill="#000000" font-family="sans-serif" font-size="14" lengthAdjust="spacing" textLength="84" x="834.5042" y="219.7504">Get a trielog</text></g><g id="elem_tl_save2DB"><ellipse cx="658.9363" cy="411.0013" fill="#F1F1F1" rx="76.9563" ry="17.7913" style="stroke:#181818;stroke-width:0.5;"/><text fill="#000000" font-family="sans-serif" font-size="14" lengthAdjust="spacing" textLength="111" x="600.5475" y="414.7201">Save to databse</text></g><g id="elem_tl_saveModification"><ellipse cx="658.935" cy="482.999" fill="#F1F1F1" rx="83.995" ry="19.199" style="stroke:#181818;stroke-width:0.5;"/><text fill="#000000" font-family="sans-serif" font-size="14" lengthAdjust="spacing" textLength="128" x="594.6735" y="485.9356">Save modifications</text></g><g id="elem_a_getStateAtX"><ellipse cx="433.0758" cy="129.0032" fill="#F1F1F1" rx="81.8658" ry="18.7732" style="stroke:#181818;stroke-width:0.5;"/><text fill="#000000" font-family="sans-serif" font-size="14" lengthAdjust="spacing" textLength="123" x="370.5905" y="132.1763">Get state at slot X</text></g><g id="elem_a_rollForward"><ellipse cx="658.9394" cy="197.0019" fill="#F1F1F1" rx="64.0594" ry="15.2119" style="stroke:#181818;stroke-width:0.5;"/><text fill="#000000" font-family="sans-serif" font-size="14" lengthAdjust="spacing" textLength="76" x="617.9394" y="200.7494">Rollforward</text></g><g id="elem_a_rollBackward"><ellipse cx="658.9388" cy="129.9958" fill="#F1F1F1" rx="69.3288" ry="16.2658" style="stroke:#181818;stroke-width:0.5;"/><text fill="#000000" font-family="sans-serif" font-size="14" lengthAdjust="spacing" textLength="91" x="610.4388" y="133.7433">Rollbackward</text></g><g id="elem_a_getRootHash"><ellipse cx="433.0768" cy="57.9974" fill="#F1F1F1" rx="72.6868" ry="16.9374" style="stroke:#181818;stroke-width:0.5;"/><text fill="#000000" font-family="sans-serif" font-size="14" lengthAdjust="spacing" textLength="100" x="380.0768" y="61.7449">Get Root hash</text></g><g id="elem_a_crud"><ellipse cx="433.0848" cy="198.005" fill="#F1F1F1" rx="63.7248" ry="15.145" style="stroke:#181818;stroke-width:0.5;"/><text fill="#000000" font-family="sans-serif" font-size="14" lengthAdjust="spacing" textLength="75" x="392.5848" y="201.7525">CRUD data</text></g><!--entity caller--><g id="elem_caller"><ellipse cx="33" cy="105.85" fill="#F1F1F1" rx="16" ry="16" style="stroke:#181818;stroke-width:1.5;"/><path d="M33,125.85 C37,125.85 40,125.85 44,121.85 C52,121.85 60,129.85 60,137.85 L60,141.85 C60,145.85 56,149.85 52,149.85 L14,149.85 C10,149.85 6,145.85 6,141.85 L6,137.85 C6,129.85 14,121.85 22,121.85 C26,125.85 29,125.85 33,125.85 " fill="#F1F1F1" style="stroke:#181818;stroke-width:1.5;"/><text fill="#000000" font-family="sans-serif" font-size="14" lengthAdjust="spacing" textLength="38" x="14" y="164.3451">Caller</text></g><!--link caller to hli_getRootHash--><g id="link_caller_hli_getRootHash"><path d="M61.79,110.56 C72.67,104.19 85.42,97.26 97.5,92 C116.85,83.58 133.2177,77.9362 152.3677,72.2562 " fill="none" id="caller-to-hli_getRootHash" style="stroke:#181818;stroke-width:1.0;"/><polygon fill="#181818" points="158.12,70.55,148.3541,69.2744,153.3264,71.9718,150.629,76.9441,158.12,70.55" style="stroke:#181818;stroke-width:1.0;"/></g><!--link hli_getRootHash to a_getRootHash--><g id="link_hli_getRootHash_a_getRootHash"><path d="M277.54,58 C303.81,58 327.68,58 354.11,58 " fill="none" id="hli_getRootHash-to-a_getRootHash" style="stroke:#181818;stroke-width:1.0;"/><polygon fill="#181818" points="360.11,58,351.11,54,355.11,58,351.11,62,360.11,58" style="stroke:#181818;stroke-width:1.0;"/></g><!--link caller to hli_getStateAtX--><g id="link_caller_hli_getStateAtX"><path d="M61.91,128 C78.98,128 95.78,128 118.17,128 " fill="none" id="caller-to-hli_getStateAtX" style="stroke:#181818;stroke-width:1.0;"/><polygon fill="#181818" points="124.17,128,115.17,124,119.17,128,115.17,132,124.17,128" style="stroke:#181818;stroke-width:1.0;"/></g><!--link hli_getStateAtX to a_getStateAtX--><g id="link_hli_getStateAtX_a_getStateAtX"><path d="M288.49,128.36 C308.86,128.45 324.7101,128.5235 345.0701,128.6135 " fill="none" id="hli_getStateAtX-to-a_getStateAtX" style="stroke:#181818;stroke-width:1.0;"/><polygon fill="#181818" points="351.07,128.64,342.0878,124.6003,346.07,128.6179,342.0524,132.6002,351.07,128.64" style="stroke:#181818;stroke-width:1.0;"/></g><!--link a_getStateAtX to a_rollForward--><g id="link_a_getStateAtX_a_rollForward"><path d="M483.77,144.09 C524.21,156.38 574.819,171.7461 612.349,183.1461 " fill="none" id="a_getStateAtX-to-a_rollForward" style="stroke:#181818;stroke-width:1.0;"/><polygon fill="#181818" points="618.09,184.89,610.6411,178.4469,613.3058,183.4368,608.3159,186.1015,618.09,184.89" style="stroke:#181818;stroke-width:1.0;"/></g><!--link a_getStateAtX to a_rollBackward--><g id="link_a_getStateAtX_a_rollBackward"><path d="M515.22,129.36 C539.49,129.47 559.8601,129.5644 583.2601,129.6644 " fill="none" id="a_getStateAtX-to-a_rollBackward" style="stroke:#181818;stroke-width:1.0;"/><polygon fill="#181818" points="589.26,129.69,580.2772,125.6516,584.26,129.6686,580.243,133.6515,589.26,129.69" style="stroke:#181818;stroke-width:1.0;"/></g><!--link a_rollForward to dbi_getTrieLog--><g id="link_a_rollForward_dbi_getTrieLog"><path d="M719.67,202.19 C749.62,204.8 779.9025,207.4312 810.2025,210.0612 " fill="none" id="a_rollForward-to-dbi_getTrieLog" style="stroke:#181818;stroke-width:1.0;"/><polygon fill="#181818" points="816.18,210.58,807.5596,205.8167,811.1987,210.1476,806.8678,213.7868,816.18,210.58" style="stroke:#181818;stroke-width:1.0;"/></g><!--link a_rollBackward to dbi_getTrieLog--><g id="link_a_rollBackward_dbi_getTrieLog"><path d="M704.38,142.72 C723.79,148.63 746.69,156.1 766.94,164 C795.81,175.26 822.3843,187.7851 844.6743,198.8351 " fill="none" id="a_rollBackward-to-dbi_getTrieLog" style="stroke:#181818;stroke-width:1.0;"/><polygon fill="#181818" points="850.05,201.5,843.7631,193.9188,845.5703,199.2792,840.2098,201.0864,850.05,201.5" style="stroke:#181818;stroke-width:1.0;"/></g><!--link caller to hli_processNewBlock--><g id="link_caller_hli_processNewBlock"><path d="M61.87,145.28 C72.75,151.63 85.48,158.59 97.5,164 C115.37,172.05 129.857,177.5055 147.887,183.5055 " fill="none" id="caller-to-hli_processNewBlock" style="stroke:#181818;stroke-width:1.0;"/><polygon fill="#181818" points="153.58,185.4,146.3034,178.7628,148.8358,183.8212,143.7774,186.3536,153.58,185.4" style="stroke:#181818;stroke-width:1.0;"/></g><!--link hli_processNewBlock to a_crud--><g id="link_hli_processNewBlock_a_crud"><path d="M291.36,199.88 C317.16,199.53 339.1105,199.2396 363.2405,198.9196 " fill="none" id="hli_processNewBlock-to-a_crud" style="stroke:#181818;stroke-width:1.0;"/><polygon fill="#181818" points="369.24,198.84,360.1877,194.9597,364.2404,198.9063,360.2938,202.959,369.24,198.84" style="stroke:#181818;stroke-width:1.0;"/></g><!--link a_crud to tl_saveModification--><g id="link_a_crud_tl_saveModification"><path d="M437.04,213.6 C446.03,256.89 477.11,379.7 550.95,446 C563.23,457.03 573.3176,462.8258 588.9276,468.2958 " fill="none" id="a_crud-to-tl_saveModification" style="stroke:#181818;stroke-width:1.0;"/><polygon fill="#181818" points="594.59,470.28,587.4192,463.5288,589.8713,468.6265,584.7736,471.0786,594.59,470.28" style="stroke:#181818;stroke-width:1.0;"/></g><!--link a_crud to t_crud--><g id="link_a_crud_t_crud"><path d="M463.35,211.73 C506.25,231.85 580.3383,266.5913 623.2383,286.7213 " fill="none" id="a_crud-to-t_crud" style="stroke:#181818;stroke-width:1.0;"/><polygon fill="#181818" points="628.67,289.27,622.2215,281.8257,624.1435,287.146,618.8232,289.0681,628.67,289.27" style="stroke:#181818;stroke-width:1.0;"/></g><!--link t_crud to dbi_crudKV--><g id="link_t_crud_dbi_crudKV"><path d="M719.38,297.83 C746.55,295.47 772.9925,293.169 801.4425,290.699 " fill="none" id="t_crud-to-dbi_crudKV" style="stroke:#181818;stroke-width:1.0;"/><polygon fill="#181818" points="807.42,290.18,798.1078,286.9734,802.4387,290.6125,798.7997,294.9435,807.42,290.18" style="stroke:#181818;stroke-width:1.0;"/></g><!--link tl_save2DB to dbi_addTrieLog--><g id="link_tl_save2DB_dbi_addTrieLog"><path d="M710.91,397.47 C747.99,387.63 791.9507,375.9689 827.6007,366.5089 " fill="none" id="tl_save2DB-to-dbi_addTrieLog" style="stroke:#181818;stroke-width:1.0;"/><polygon fill="#181818" points="833.4,364.97,823.6751,363.4121,828.5673,366.2524,825.727,371.1445,833.4,364.97" style="stroke:#181818;stroke-width:1.0;"/></g><!--SRC=[TPFTRi8m38Nl-nGMzsZI7c0IFzgOngO9jcbto4rCYGW49Iu8JNltfJyhIIXNjCUVmx5xecdDm0QiAZOCKbaIhCm-SrkrFw357Q1WOvTyrWHu8cTsb6Mr1XFKcYoW0r4_PTa1nHOBWi7C7pUSqv4qFE-Px1e53IfoenNyP02b8u7Eaq_4O8rXsA3R_2EhWdZXnPdNKjWnihVY7xJl-WvRbbLfnDzXoxirWfo3FPqWrqPikuP3KtcZqxZIiz_0_uTLZL-EtKuMdrEGoDWKLyAMCcgS-bfUeV7OCbSz1stfV7T4NNPCVTxBLmYEf0G4zdwqAJeEfQmipasHhkUQzOlvPzCHOTvoh6DxIpnI5OjgrDorgz0hv-NxwVYAt1cfrafW5HqNmgz18VhtaH3bhjJeSrJpU9sAlW-DjpxpmcYzDlQ4LhQWzSfZewHWxbqavBYLKXEBA9fuAvXnBh3BHNCnO3Xyk8frybupyVaztTteoVkbkoEmfnxkv5QzsqI4rq2IffZl8z89qYlNexLEwWKsFxNIbwUmt3JmHGbkKtP9RbUwNA0_]--></g></svg>