<?xml version="1.0" encoding="us-ascii" standalone="no"?><svg xmlns="http://www.w3.org/2000/svg" xmlns:xlink="http://www.w3.org/1999/xlink" contentStyleType="text/css" height="1001px" preserveAspectRatio="none" style="width:1416px;height:1001px;background:#FFFFFF;" version="1.1" viewBox="0 0 1416 1001" width="1416px" zoomAndPan="magnify"><defs/><g><line style="stroke:#181818;stroke-width:0.5;stroke-dasharray:5.0,5.0;" x1="37" x2="37" y1="36.2969" y2="966.1484"/><line style="stroke:#181818;stroke-width:0.5;stroke-dasharray:5.0,5.0;" x1="116" x2="116" y1="36.2969" y2="966.1484"/><line style="stroke:#181818;stroke-width:0.5;stroke-dasharray:5.0,5.0;" x1="393" x2="393" y1="36.2969" y2="966.1484"/><line style="stroke:#181818;stroke-width:0.5;stroke-dasharray:5.0,5.0;" x1="651.5" x2="651.5" y1="36.2969" y2="966.1484"/><line style="stroke:#181818;stroke-width:0.5;stroke-dasharray:5.0,5.0;" x1="946.5" x2="946.5" y1="36.2969" y2="966.1484"/><line style="stroke:#181818;stroke-width:0.5;stroke-dasharray:5.0,5.0;" x1="1302" x2="1302" y1="36.2969" y2="966.1484"/><line style="stroke:#181818;stroke-width:0.5;stroke-dasharray:5.0,5.0;" x1="1378" x2="1378" y1="36.2969" y2="966.1484"/><rect fill="#E2E2F0" height="30.2969" rx="2.5" ry="2.5" style="stroke:#181818;stroke-width:0.5;" width="64" x="5" y="5"/><text fill="#000000" font-family="sans-serif" font-size="14" lengthAdjust="spacing" textLength="50" x="12" y="24.9951">Madara</text><rect fill="#E2E2F0" height="30.2969" rx="2.5" ry="2.5" style="stroke:#181818;stroke-width:0.5;" width="64" x="5" y="965.1484"/><text fill="#000000" font-family="sans-serif" font-size="14" lengthAdjust="spacing" textLength="50" x="12" y="985.1436">Madara</text><rect fill="#E2E2F0" height="30.2969" rx="2.5" ry="2.5" style="stroke:#181818;stroke-width:0.5;" width="74" x="79" y="5"/><text fill="#000000" font-family="sans-serif" font-size="14" lengthAdjust="spacing" textLength="60" x="86" y="24.9951">Interface</text><rect fill="#E2E2F0" height="30.2969" rx="2.5" ry="2.5" style="stroke:#181818;stroke-width:0.5;" width="74" x="79" y="965.1484"/><text fill="#000000" font-family="sans-serif" font-size="14" lengthAdjust="spacing" textLength="60" x="86" y="985.1436">Interface</text><rect fill="#E2E2F0" height="30.2969" rx="2.5" ry="2.5" style="stroke:#181818;stroke-width:0.5;" width="40" x="373" y="5"/><text fill="#000000" font-family="sans-serif" font-size="14" lengthAdjust="spacing" textLength="26" x="380" y="24.9951">Trie</text><rect fill="#E2E2F0" height="30.2969" rx="2.5" ry="2.5" style="stroke:#181818;stroke-width:0.5;" width="40" x="373" y="965.1484"/><text fill="#000000" font-family="sans-serif" font-size="14" lengthAdjust="spacing" textLength="26" x="380" y="985.1436">Trie</text><rect fill="#E2E2F0" height="30.2969" rx="2.5" ry="2.5" style="stroke:#181818;stroke-width:0.5;" width="65" x="619.5" y="5"/><text fill="#000000" font-family="sans-serif" font-size="14" lengthAdjust="spacing" textLength="51" x="626.5" y="24.9951">TrieLog</text><rect fill="#E2E2F0" height="30.2969" rx="2.5" ry="2.5" style="stroke:#181818;stroke-width:0.5;" width="65" x="619.5" y="965.1484"/><text fill="#000000" font-family="sans-serif" font-size="14" lengthAdjust="spacing" textLength="51" x="626.5" y="985.1436">TrieLog</text><rect fill="#E2E2F0" height="30.2969" rx="2.5" ry="2.5" style="stroke:#181818;stroke-width:0.5;" width="115" x="889.5" y="5"/><text fill="#000000" font-family="sans-serif" font-size="14" lengthAdjust="spacing" textLength="101" x="896.5" y="24.9951">BonsaiStorage</text><rect fill="#E2E2F0" height="30.2969" rx="2.5" ry="2.5" style="stroke:#181818;stroke-width:0.5;" width="115" x="889.5" y="965.1484"/><text fill="#000000" font-family="sans-serif" font-size="14" lengthAdjust="spacing" textLength="101" x="896.5" y="985.1436">BonsaiStorage</text><rect fill="#E2E2F0" height="30.2969" rx="2.5" ry="2.5" style="stroke:#181818;stroke-width:0.5;" width="80" x="1262" y="5"/><text fill="#000000" font-family="sans-serif" font-size="14" lengthAdjust="spacing" textLength="66" x="1269" y="24.9951">Database</text><rect fill="#E2E2F0" height="30.2969" rx="2.5" ry="2.5" style="stroke:#181818;stroke-width:0.5;" width="80" x="1262" y="965.1484"/><text fill="#000000" font-family="sans-serif" font-size="14" lengthAdjust="spacing" textLength="66" x="1269" y="985.1436">Database</text><rect fill="#E2E2F0" height="30.2969" rx="2.5" ry="2.5" style="stroke:#181818;stroke-width:0.5;" width="52" x="1352" y="5"/><text fill="#000000" font-family="sans-serif" font-size="14" lengthAdjust="spacing" textLength="38" x="1359" y="24.9951">Caller</text><rect fill="#E2E2F0" height="30.2969" rx="2.5" ry="2.5" style="stroke:#181818;stroke-width:0.5;" width="52" x="1352" y="965.1484"/><text fill="#000000" font-family="sans-serif" font-size="14" lengthAdjust="spacing" textLength="38" x="1359" y="985.1436">Caller</text><rect fill="#EEEEEE" height="3" style="stroke:#EEEEEE;stroke-width:1.0;" width="1409" x="0" y="66.8633"/><line style="stroke:#000000;stroke-width:1.0;" x1="0" x2="1409" y1="66.8633" y2="66.8633"/><line style="stroke:#000000;stroke-width:1.0;" x1="0" x2="1409" y1="69.8633" y2="69.8633"/><rect fill="#EEEEEE" height="23.1328" style="stroke:#000000;stroke-width:2.0;" width="174" x="617.5" y="56.2969"/><text fill="#000000" font-family="sans-serif" font-size="13" font-weight="bold" lengthAdjust="spacing" textLength="155" x="623.5" y="72.3638">Processign a commit</text><polygon fill="#181818" points="127,106.5625,117,110.5625,127,114.5625,123,110.5625" style="stroke:#181818;stroke-width:1.0;"/><line style="stroke:#181818;stroke-width:1.0;" x1="121" x2="1377" y1="110.5625" y2="110.5625"/><text fill="#000000" font-family="sans-serif" font-size="13" font-weight="bold" lengthAdjust="spacing" textLength="9" x="133" y="105.4966">1</text><text fill="#000000" font-family="sans-serif" font-size="13" lengthAdjust="spacing" textLength="205" x="146" y="105.4966">New commit of changes to save</text><polygon fill="#181818" points="381,135.6953,391,139.6953,381,143.6953,385,139.6953" style="stroke:#181818;stroke-width:1.0;"/><line style="stroke:#181818;stroke-width:1.0;" x1="116" x2="387" y1="139.6953" y2="139.6953"/><text fill="#000000" font-family="sans-serif" font-size="13" font-weight="bold" lengthAdjust="spacing" textLength="9" x="123" y="134.6294">2</text><text fill="#000000" font-family="sans-serif" font-size="13" lengthAdjust="spacing" textLength="240" x="136" y="134.6294">Modify the trie and save in the flat DB</text><polygon fill="#181818" points="1290,164.8281,1300,168.8281,1290,172.8281,1294,168.8281" style="stroke:#181818;stroke-width:1.0;"/><line style="stroke:#181818;stroke-width:1.0;" x1="393" x2="1296" y1="168.8281" y2="168.8281"/><text fill="#000000" font-family="sans-serif" font-size="13" font-weight="bold" lengthAdjust="spacing" textLength="9" x="400" y="163.7622">3</text><text fill="#000000" font-family="sans-serif" font-size="13" lengthAdjust="spacing" textLength="103" x="413" y="163.7622">Fetch the nodes</text><polygon fill="#181818" points="404,193.9609,394,197.9609,404,201.9609,400,197.9609" style="stroke:#181818;stroke-width:1.0;"/><line style="stroke:#181818;stroke-width:1.0;" x1="398" x2="1301" y1="197.9609" y2="197.9609"/><text fill="#000000" font-family="sans-serif" font-size="13" font-weight="bold" lengthAdjust="spacing" textLength="9" x="410" y="192.895">4</text><text fill="#000000" font-family="sans-serif" font-size="13" lengthAdjust="spacing" textLength="110" x="423" y="192.895">Return the nodes</text><polygon fill="#181818" points="1290,223.0938,1300,227.0938,1290,231.0938,1294,227.0938" style="stroke:#181818;stroke-width:1.0;"/><line style="stroke:#181818;stroke-width:1.0;" x1="393" x2="1296" y1="227.0938" y2="227.0938"/><text fill="#000000" font-family="sans-serif" font-size="13" font-weight="bold" lengthAdjust="spacing" textLength="9" x="400" y="222.0278">5</text><text fill="#000000" font-family="sans-serif" font-size="13" lengthAdjust="spacing" textLength="179" x="413" y="222.0278">Save all modifications to DB</text><polygon fill="#181818" points="640,252.2266,650,256.2266,640,260.2266,644,256.2266" style="stroke:#181818;stroke-width:1.0;"/><line style="stroke:#181818;stroke-width:1.0;" x1="393" x2="646" y1="256.2266" y2="256.2266"/><text fill="#000000" font-family="sans-serif" font-size="13" font-weight="bold" lengthAdjust="spacing" textLength="9" x="400" y="251.1606">6</text><text fill="#000000" font-family="sans-serif" font-size="13" lengthAdjust="spacing" textLength="222" x="413" y="251.1606">Save modifications in the Trie Logs</text><polygon fill="#181818" points="1290,281.3594,1300,285.3594,1290,289.3594,1294,285.3594" style="stroke:#181818;stroke-width:1.0;"/><line style="stroke:#181818;stroke-width:1.0;" x1="652" x2="1296" y1="285.3594" y2="285.3594"/><text fill="#000000" font-family="sans-serif" font-size="13" font-weight="bold" lengthAdjust="spacing" textLength="9" x="659" y="280.2935">7</text><text fill="#000000" font-family="sans-serif" font-size="13" lengthAdjust="spacing" textLength="222" x="672" y="280.2935">Save the Trie Logs in the database</text><polygon fill="#181818" points="935,310.4922,945,314.4922,935,318.4922,939,314.4922" style="stroke:#181818;stroke-width:1.0;"/><line style="stroke:#181818;stroke-width:1.0;" x1="652" x2="941" y1="314.4922" y2="314.4922"/><text fill="#000000" font-family="sans-serif" font-size="13" font-weight="bold" lengthAdjust="spacing" textLength="9" x="659" y="309.4263">8</text><text fill="#000000" font-family="sans-serif" font-size="13" lengthAdjust="spacing" textLength="258" x="672" y="309.4263">Save the Trie Logs to the BonsaiStorage</text><polygon fill="#181818" points="1290,339.625,1300,343.625,1290,347.625,1294,343.625" style="stroke:#181818;stroke-width:1.0;"/><line style="stroke:#181818;stroke-width:1.0;" x1="947" x2="1296" y1="343.625" y2="343.625"/><text fill="#000000" font-family="sans-serif" font-size="13" font-weight="bold" lengthAdjust="spacing" textLength="9" x="954" y="338.5591">9</text><text fill="#000000" font-family="sans-serif" font-size="13" lengthAdjust="spacing" textLength="215" x="967" y="338.5591">Save a snapshot every N batches</text><polygon fill="#181818" points="1366,368.7578,1376,372.7578,1366,376.7578,1370,372.7578" style="stroke:#181818;stroke-width:1.0;"/><line style="stroke:#181818;stroke-width:1.0;" x1="393" x2="1372" y1="372.7578" y2="372.7578"/><text fill="#000000" font-family="sans-serif" font-size="13" font-weight="bold" lengthAdjust="spacing" textLength="18" x="400" y="367.6919">10</text><text fill="#000000" font-family="sans-serif" font-size="13" lengthAdjust="spacing" textLength="169" x="422" y="367.6919">Result of the modifications</text><rect fill="#EEEEEE" height="3" style="stroke:#EEEEEE;stroke-width:1.0;" width="1409" x="0" y="401.3242"/><line style="stroke:#000000;stroke-width:1.0;" x1="0" x2="1409" y1="401.3242" y2="401.3242"/><line style="stroke:#000000;stroke-width:1.0;" x1="0" x2="1409" y1="404.3242" y2="404.3242"/><rect fill="#EEEEEE" height="23.1328" style="stroke:#000000;stroke-width:2.0;" width="229" x="590" y="390.7578"/><text fill="#000000" font-family="sans-serif" font-size="13" font-weight="bold" lengthAdjust="spacing" textLength="210" x="596" y="406.8247">Asking for a specific state X</text><polygon fill="#181818" points="127,441.0234,117,445.0234,127,449.0234,123,445.0234" style="stroke:#181818;stroke-width:1.0;"/><line style="stroke:#181818;stroke-width:1.0;" x1="121" x2="1377" y1="445.0234" y2="445.0234"/><text fill="#000000" font-family="sans-serif" font-size="13" font-weight="bold" lengthAdjust="spacing" textLength="9" x="133" y="439.9575">1</text><text fill="#000000" font-family="sans-serif" font-size="13" lengthAdjust="spacing" textLength="105" x="146" y="439.9575">Ask for a state X</text><polygon fill="#181818" points="935,470.1563,945,474.1563,935,478.1563,939,474.1563" style="stroke:#181818;stroke-width:1.0;"/><line style="stroke:#181818;stroke-width:1.0;" x1="116" x2="941" y1="474.1563" y2="474.1563"/><text fill="#000000" font-family="sans-serif" font-size="13" font-weight="bold" lengthAdjust="spacing" textLength="9" x="123" y="469.0903">2</text><text fill="#000000" font-family="sans-serif" font-size="13" lengthAdjust="spacing" textLength="106" x="136" y="469.0903">Ask for the state</text><line style="stroke:#181818;stroke-width:1.0;" x1="947" x2="989" y1="503.2891" y2="503.2891"/><line style="stroke:#181818;stroke-width:1.0;" x1="989" x2="989" y1="503.2891" y2="516.2891"/><line style="stroke:#181818;stroke-width:1.0;" x1="948" x2="989" y1="516.2891" y2="516.2891"/><polygon fill="#181818" points="958,512.2891,948,516.2891,958,520.2891,954,516.2891" style="stroke:#181818;stroke-width:1.0;"/><text fill="#000000" font-family="sans-serif" font-size="13" font-weight="bold" lengthAdjust="spacing" textLength="9" x="954" y="498.2231">3</text><text fill="#000000" font-family="sans-serif" font-size="13" lengthAdjust="spacing" textLength="144" x="967" y="498.2231">Is it my current state ?</text><polygon fill="#008000" points="1366,541.4219,1376,545.4219,1366,549.4219,1370,545.4219" style="stroke:#008000;stroke-width:1.0;"/><line style="stroke:#008000;stroke-width:1.0;" x1="947" x2="1372" y1="545.4219" y2="545.4219"/><text fill="#000000" font-family="sans-serif" font-size="13" font-weight="bold" lengthAdjust="spacing" textLength="9" x="954" y="540.356">4</text><text fill="#000000" font-family="sans-serif" font-size="13" lengthAdjust="spacing" textLength="104" x="967" y="540.356">Return the state</text><line style="stroke:#FF0000;stroke-width:1.0;" x1="947" x2="989" y1="589.6875" y2="589.6875"/><line style="stroke:#FF0000;stroke-width:1.0;" x1="989" x2="989" y1="589.6875" y2="602.6875"/><line style="stroke:#FF0000;stroke-width:1.0;" x1="948" x2="989" y1="602.6875" y2="602.6875"/><polygon fill="#FF0000" points="958,598.6875,948,602.6875,958,606.6875,954,602.6875" style="stroke:#FF0000;stroke-width:1.0;"/><text fill="#000000" font-family="sans-serif" font-size="13" font-weight="bold" lengthAdjust="spacing" textLength="9" x="954" y="577.0552">4</text><text fill="#000000" font-family="sans-serif" font-size="13" lengthAdjust="spacing" textLength="250" x="967" y="569.4888">Can we rollback/rollforward to this state</text><text fill="#000000" font-family="sans-serif" font-size="13" lengthAdjust="spacing" textLength="120" x="971" y="584.6216">using the Trie Logs</text><line style="stroke:#008000;stroke-width:1.0;" x1="947" x2="989" y1="631.8203" y2="631.8203"/><line style="stroke:#008000;stroke-width:1.0;" x1="989" x2="989" y1="631.8203" y2="644.8203"/><line style="stroke:#008000;stroke-width:1.0;" x1="948" x2="989" y1="644.8203" y2="644.8203"/><polygon fill="#008000" points="958,640.8203,948,644.8203,958,648.8203,954,644.8203" style="stroke:#008000;stroke-width:1.0;"/><text fill="#000000" font-family="sans-serif" font-size="13" font-weight="bold" lengthAdjust="spacing" textLength="9" x="954" y="626.7544">5</text><text fill="#000000" font-family="sans-serif" font-size="13" lengthAdjust="spacing" textLength="113" x="967" y="626.7544">If yes, apply them</text><polygon fill="#181818" points="1366,669.9531,1376,673.9531,1366,677.9531,1370,673.9531" style="stroke:#181818;stroke-width:1.0;"/><line style="stroke:#181818;stroke-width:1.0;" x1="947" x2="1372" y1="673.9531" y2="673.9531"/><text fill="#000000" font-family="sans-serif" font-size="13" font-weight="bold" lengthAdjust="spacing" textLength="9" x="954" y="668.8872">6</text><text fill="#000000" font-family="sans-serif" font-size="13" lengthAdjust="spacing" textLength="104" x="967" y="668.8872">Return the state</text><polygon fill="#FF0000" points="1290,699.0859,1300,703.0859,1290,707.0859,1294,703.0859" style="stroke:#FF0000;stroke-width:1.0;"/><line style="stroke:#FF0000;stroke-width:1.0;" x1="947" x2="1296" y1="703.0859" y2="703.0859"/><text fill="#000000" font-family="sans-serif" font-size="13" font-weight="bold" lengthAdjust="spacing" textLength="9" x="954" y="698.02">5</text><text fill="#000000" font-family="sans-serif" font-size="13" lengthAdjust="spacing" textLength="181" x="967" y="698.02">Ask for the closest snapshot</text><polygon fill="#181818" points="958,728.2188,948,732.2188,958,736.2188,954,732.2188" style="stroke:#181818;stroke-width:1.0;"/><line style="stroke:#181818;stroke-width:1.0;" x1="952" x2="1301" y1="732.2188" y2="732.2188"/><text fill="#000000" font-family="sans-serif" font-size="13" font-weight="bold" lengthAdjust="spacing" textLength="9" x="964" y="727.1528">6</text><text fill="#000000" font-family="sans-serif" font-size="13" lengthAdjust="spacing" textLength="179" x="977" y="727.1528">Return the closest snapshot</text><line style="stroke:#181818;stroke-width:1.0;" x1="947" x2="989" y1="761.3516" y2="761.3516"/><line style="stroke:#181818;stroke-width:1.0;" x1="989" x2="989" y1="761.3516" y2="774.3516"/><line style="stroke:#181818;stroke-width:1.0;" x1="948" x2="989" y1="774.3516" y2="774.3516"/><polygon fill="#181818" points="958,770.3516,948,774.3516,958,778.3516,954,774.3516" style="stroke:#181818;stroke-width:1.0;"/><text fill="#000000" font-family="sans-serif" font-size="13" font-weight="bold" lengthAdjust="spacing" textLength="9" x="954" y="756.2856">7</text><text fill="#000000" font-family="sans-serif" font-size="13" lengthAdjust="spacing" textLength="328" x="967" y="756.2856">Is the closest snapshot exactly at the asked state ?</text><polygon fill="#008000" points="1366,799.4844,1376,803.4844,1366,807.4844,1370,803.4844" style="stroke:#008000;stroke-width:1.0;"/><line style="stroke:#008000;stroke-width:1.0;" x1="947" x2="1372" y1="803.4844" y2="803.4844"/><text fill="#000000" font-family="sans-serif" font-size="13" font-weight="bold" lengthAdjust="spacing" textLength="9" x="954" y="798.4185">8</text><text fill="#000000" font-family="sans-serif" font-size="13" lengthAdjust="spacing" textLength="167" x="967" y="798.4185">Return the snapshot state</text><polygon fill="#FF0000" points="1290,843.75,1300,847.75,1290,851.75,1294,847.75" style="stroke:#FF0000;stroke-width:1.0;"/><line style="stroke:#FF0000;stroke-width:1.0;" x1="947" x2="1296" y1="847.75" y2="847.75"/><text fill="#000000" font-family="sans-serif" font-size="13" font-weight="bold" lengthAdjust="spacing" textLength="9" x="954" y="835.1177">8</text><text fill="#000000" font-family="sans-serif" font-size="13" lengthAdjust="spacing" textLength="288" x="967" y="827.5513">Ask for the trie logs to derive the asked state</text><text fill="#000000" font-family="sans-serif" font-size="13" lengthAdjust="spacing" textLength="118" x="971" y="842.6841">from the snapshot</text><polygon fill="#181818" points="958,872.8828,948,876.8828,958,880.8828,954,876.8828" style="stroke:#181818;stroke-width:1.0;"/><line style="stroke:#181818;stroke-width:1.0;" x1="952" x2="1301" y1="876.8828" y2="876.8828"/><text fill="#000000" font-family="sans-serif" font-size="13" font-weight="bold" lengthAdjust="spacing" textLength="9" x="964" y="871.8169">9</text><text fill="#000000" font-family="sans-serif" font-size="13" lengthAdjust="spacing" textLength="122" x="977" y="871.8169">Return the trie logs</text><line style="stroke:#181818;stroke-width:1.0;" x1="947" x2="989" y1="906.0156" y2="906.0156"/><line style="stroke:#181818;stroke-width:1.0;" x1="989" x2="989" y1="906.0156" y2="919.0156"/><line style="stroke:#181818;stroke-width:1.0;" x1="948" x2="989" y1="919.0156" y2="919.0156"/><polygon fill="#181818" points="958,915.0156,948,919.0156,958,923.0156,954,919.0156" style="stroke:#181818;stroke-width:1.0;"/><text fill="#000000" font-family="sans-serif" font-size="13" font-weight="bold" lengthAdjust="spacing" textLength="18" x="954" y="900.9497">10</text><text fill="#000000" font-family="sans-serif" font-size="13" lengthAdjust="spacing" textLength="115" x="976" y="900.9497">Apply the trie logs</text><polygon fill="#181818" points="1366,944.1484,1376,948.1484,1366,952.1484,1370,948.1484" style="stroke:#181818;stroke-width:1.0;"/><line style="stroke:#181818;stroke-width:1.0;" x1="947" x2="1372" y1="948.1484" y2="948.1484"/><text fill="#000000" font-family="sans-serif" font-size="13" font-weight="bold" lengthAdjust="spacing" textLength="18" x="954" y="943.0825">11</text><text fill="#000000" font-family="sans-serif" font-size="13" lengthAdjust="spacing" textLength="186" x="976" y="943.0825">Return the state (or an error)</text><!--SRC=[dLHDYzim4BtxLmpqqa9BARHG0cdPtL9Ow2wbsqEXkuU9F7P4RCcCv4tpxol97v5ifvjkJixelPatRqPgaAqKia5buGPpP8JZ3qqVove8TgqiSO628jWOIv0_MH90cj37Pg1lkfo1N2p1NMfbKDvPpLXIZqjY2VeBMjoWeJZh4CkozHg-inPaZ2mL80XTrzB2Ufrbs5gjsdf33E-oAwmgz_7cKzJq2cvfFp1q0MABgYG3LeF1HygEI4SB3gpWHkUoE83T4bWVGPK7C4WLWaM5Jl9b5k2EDgfVmLUoOXj0IkTail7ecFq7sPPLX5b8S-UhkMwWzbAaG2kTTrvqL7OOHGzFeRtKW7MWhef7BnHAW0Cp7-oFYEbG5zbEeW-aeqvvIws2KTYOhRP0ZyG7k8KDEYSZT_hXUlzCMuLP-a99r_4w6AkRi3eNPYTL2OLcNwOXuV7k62t1hx14vsoHopAaw9ZfvaoT6U1UOY3CFPXIhftr5ke3Y9QPtANe2dsUCd-_A9b8FIIMZ2lL5Plw4Fr_xrgSPMJA7-QAhb31de1rLMrGxDxw3zVK7ZdlvYnDB_9UGMkyo-dEdLG-wxs00vdNW4rJXOjNp_rwLhSVJdSRxM0yBL5fGyQE2vbSuQdkICgCTyx0buX0Vr1OPuDxPFmvcXtbpro68UMJFdtyRv_2orZrLpudblrJ4CjrQr6mhXCjv_evvd_Qo8jXQ_v5Eha-yD9VQmN4hFdLNm00]--></g></svg>