<?xml version="1.0" encoding="us-ascii" standalone="no"?><svg xmlns="http://www.w3.org/2000/svg" xmlns:xlink="http://www.w3.org/1999/xlink" contentStyleType="text/css" height="1001px" preserveAspectRatio="none" style="width:1476px;height:1001px;background:#FFFFFF;" version="1.1" viewBox="0 0 1476 1001" width="1476px" zoomAndPan="magnify"><defs/><g><line style="stroke:#181818;stroke-width:0.5;stroke-dasharray:5.0,5.0;" x1="37" x2="37" y1="36.2969" y2="966.1484"/><line style="stroke:#181818;stroke-width:0.5;stroke-dasharray:5.0,5.0;" x1="361" x2="361" y1="36.2969" y2="966.1484"/><line style="stroke:#181818;stroke-width:0.5;stroke-dasharray:5.0,5.0;" x1="638" x2="638" y1="36.2969" y2="966.1484"/><line style="stroke:#181818;stroke-width:0.5;stroke-dasharray:5.0,5.0;" x1="866.5" x2="866.5" y1="36.2969" y2="966.1484"/><line style="stroke:#181818;stroke-width:0.5;stroke-dasharray:5.0,5.0;" x1="1138" x2="1138" y1="36.2969" y2="966.1484"/><line style="stroke:#181818;stroke-width:0.5;stroke-dasharray:5.0,5.0;" x1="1424" x2="1424" y1="36.2969" y2="966.1484"/><rect fill="#E2E2F0" height="30.2969" rx="2.5" ry="2.5" style="stroke:#181818;stroke-width:0.5;" width="64" x="5" y="5"/><text fill="#000000" font-family="sans-serif" font-size="14" lengthAdjust="spacing" textLength="50" x="12" y="24.9951">Madara</text><rect fill="#E2E2F0" height="30.2969" rx="2.5" ry="2.5" style="stroke:#181818;stroke-width:0.5;" width="64" x="5" y="965.1484"/><text fill="#000000" font-family="sans-serif" font-size="14" lengthAdjust="spacing" textLength="50" x="12" y="985.1436">Madara</text><rect fill="#E2E2F0" height="30.2969" rx="2.5" ry="2.5" style="stroke:#181818;stroke-width:0.5;" width="74" x="324" y="5"/><text fill="#000000" font-family="sans-serif" font-size="14" lengthAdjust="spacing" textLength="60" x="331" y="24.9951">Interface</text><rect fill="#E2E2F0" height="30.2969" rx="2.5" ry="2.5" style="stroke:#181818;stroke-width:0.5;" width="74" x="324" y="965.1484"/><text fill="#000000" font-family="sans-serif" font-size="14" lengthAdjust="spacing" textLength="60" x="331" y="985.1436">Interface</text><rect fill="#E2E2F0" height="30.2969" rx="2.5" ry="2.5" style="stroke:#181818;stroke-width:0.5;" width="112" x="582" y="5"/><text fill="#000000" font-family="sans-serif" font-size="14" lengthAdjust="spacing" textLength="98" x="589" y="24.9951">TrieAndFlatDB</text><rect fill="#E2E2F0" height="30.2969" rx="2.5" ry="2.5" style="stroke:#181818;stroke-width:0.5;" width="112" x="582" y="965.1484"/><text fill="#000000" font-family="sans-serif" font-size="14" lengthAdjust="spacing" textLength="98" x="589" y="985.1436">TrieAndFlatDB</text><rect fill="#E2E2F0" height="30.2969" rx="2.5" ry="2.5" style="stroke:#181818;stroke-width:0.5;" width="65" x="834.5" y="5"/><text fill="#000000" font-family="sans-serif" font-size="14" lengthAdjust="spacing" textLength="51" x="841.5" y="24.9951">TrieLog</text><rect fill="#E2E2F0" height="30.2969" rx="2.5" ry="2.5" style="stroke:#181818;stroke-width:0.5;" width="65" x="834.5" y="965.1484"/><text fill="#000000" font-family="sans-serif" font-size="14" lengthAdjust="spacing" textLength="51" x="841.5" y="985.1436">TrieLog</text><rect fill="#E2E2F0" height="30.2969" rx="2.5" ry="2.5" style="stroke:#181818;stroke-width:0.5;" width="100" x="1088" y="5"/><text fill="#000000" font-family="sans-serif" font-size="14" lengthAdjust="spacing" textLength="86" x="1095" y="24.9951">Accumulator</text><rect fill="#E2E2F0" height="30.2969" rx="2.5" ry="2.5" style="stroke:#181818;stroke-width:0.5;" width="100" x="1088" y="965.1484"/><text fill="#000000" font-family="sans-serif" font-size="14" lengthAdjust="spacing" textLength="86" x="1095" y="985.1436">Accumulator</text><rect fill="#E2E2F0" height="30.2969" rx="2.5" ry="2.5" style="stroke:#181818;stroke-width:0.5;" width="80" x="1384" y="5"/><text fill="#000000" font-family="sans-serif" font-size="14" lengthAdjust="spacing" textLength="66" x="1391" y="24.9951">Database</text><rect fill="#E2E2F0" height="30.2969" rx="2.5" ry="2.5" style="stroke:#181818;stroke-width:0.5;" width="80" x="1384" y="965.1484"/><text fill="#000000" font-family="sans-serif" font-size="14" lengthAdjust="spacing" textLength="66" x="1391" y="985.1436">Database</text><rect fill="#EEEEEE" height="3" style="stroke:#EEEEEE;stroke-width:1.0;" width="1469" x="0" y="66.8633"/><line style="stroke:#000000;stroke-width:1.0;" x1="0" x2="1469" y1="66.8633" y2="66.8633"/><line style="stroke:#000000;stroke-width:1.0;" x1="0" x2="1469" y1="69.8633" y2="69.8633"/><rect fill="#EEEEEE" height="23.1328" style="stroke:#000000;stroke-width:2.0;" width="96" x="686.5" y="56.2969"/><text fill="#000000" font-family="sans-serif" font-size="13" font-weight="bold" lengthAdjust="spacing" textLength="77" x="692.5" y="72.3638">New block</text><polygon fill="#181818" points="349,106.5625,359,110.5625,349,114.5625,353,110.5625" style="stroke:#181818;stroke-width:1.0;"/><line style="stroke:#181818;stroke-width:1.0;" x1="37" x2="355" y1="110.5625" y2="110.5625"/><text fill="#000000" font-family="sans-serif" font-size="13" font-weight="bold" lengthAdjust="spacing" textLength="9" x="44" y="105.4966">1</text><text fill="#000000" font-family="sans-serif" font-size="13" lengthAdjust="spacing" textLength="287" x="57" y="105.4966">New batch of data to save (block processing)</text><polygon fill="#181818" points="626,135.6953,636,139.6953,626,143.6953,630,139.6953" style="stroke:#181818;stroke-width:1.0;"/><line style="stroke:#181818;stroke-width:1.0;" x1="361" x2="632" y1="139.6953" y2="139.6953"/><text fill="#000000" font-family="sans-serif" font-size="13" font-weight="bold" lengthAdjust="spacing" textLength="9" x="368" y="134.6294">2</text><text fill="#000000" font-family="sans-serif" font-size="13" lengthAdjust="spacing" textLength="240" x="381" y="134.6294">Modify the trie and save in the flat DB</text><polygon fill="#181818" points="1412,164.8281,1422,168.8281,1412,172.8281,1416,168.8281" style="stroke:#181818;stroke-width:1.0;"/><line style="stroke:#181818;stroke-width:1.0;" x1="638" x2="1418" y1="168.8281" y2="168.8281"/><text fill="#000000" font-family="sans-serif" font-size="13" font-weight="bold" lengthAdjust="spacing" textLength="9" x="645" y="163.7622">3</text><text fill="#000000" font-family="sans-serif" font-size="13" lengthAdjust="spacing" textLength="103" x="658" y="163.7622">Fetch the nodes</text><polygon fill="#181818" points="649,193.9609,639,197.9609,649,201.9609,645,197.9609" style="stroke:#181818;stroke-width:1.0;"/><line style="stroke:#181818;stroke-width:1.0;" x1="643" x2="1423" y1="197.9609" y2="197.9609"/><text fill="#000000" font-family="sans-serif" font-size="13" font-weight="bold" lengthAdjust="spacing" textLength="9" x="655" y="192.895">4</text><text fill="#000000" font-family="sans-serif" font-size="13" lengthAdjust="spacing" textLength="110" x="668" y="192.895">Return the nodes</text><polygon fill="#181818" points="1412,223.0938,1422,227.0938,1412,231.0938,1416,227.0938" style="stroke:#181818;stroke-width:1.0;"/><line style="stroke:#181818;stroke-width:1.0;" x1="638" x2="1418" y1="227.0938" y2="227.0938"/><text fill="#000000" font-family="sans-serif" font-size="13" font-weight="bold" lengthAdjust="spacing" textLength="9" x="645" y="222.0278">5</text><text fill="#000000" font-family="sans-serif" font-size="13" lengthAdjust="spacing" textLength="232" x="658" y="222.0278">Save all the modifications on the DB</text><polygon fill="#181818" points="855,252.2266,865,256.2266,855,260.2266,859,256.2266" style="stroke:#181818;stroke-width:1.0;"/><line style="stroke:#181818;stroke-width:1.0;" x1="638" x2="861" y1="256.2266" y2="256.2266"/><text fill="#000000" font-family="sans-serif" font-size="13" font-weight="bold" lengthAdjust="spacing" textLength="9" x="645" y="251.1606">6</text><text fill="#000000" font-family="sans-serif" font-size="13" lengthAdjust="spacing" textLength="192" x="658" y="251.1606">Save modifications in a trielog</text><polygon fill="#181818" points="1412,281.3594,1422,285.3594,1412,289.3594,1416,285.3594" style="stroke:#181818;stroke-width:1.0;"/><line style="stroke:#181818;stroke-width:1.0;" x1="867" x2="1418" y1="285.3594" y2="285.3594"/><text fill="#000000" font-family="sans-serif" font-size="13" font-weight="bold" lengthAdjust="spacing" textLength="9" x="874" y="280.2935">7</text><text fill="#000000" font-family="sans-serif" font-size="13" lengthAdjust="spacing" textLength="211" x="887" y="280.2935">Save the TrieLog in the database</text><polygon fill="#181818" points="1126,310.4922,1136,314.4922,1126,318.4922,1130,314.4922" style="stroke:#181818;stroke-width:1.0;"/><line style="stroke:#181818;stroke-width:1.0;" x1="867" x2="1132" y1="314.4922" y2="314.4922"/><text fill="#000000" font-family="sans-serif" font-size="13" font-weight="bold" lengthAdjust="spacing" textLength="9" x="874" y="309.4263">8</text><text fill="#000000" font-family="sans-serif" font-size="13" lengthAdjust="spacing" textLength="234" x="887" y="309.4263">Save the TrieLog to the Accumulator</text><polygon fill="#181818" points="1412,339.625,1422,343.625,1412,347.625,1416,343.625" style="stroke:#181818;stroke-width:1.0;"/><line style="stroke:#181818;stroke-width:1.0;" x1="1138" x2="1418" y1="343.625" y2="343.625"/><text fill="#000000" font-family="sans-serif" font-size="13" font-weight="bold" lengthAdjust="spacing" textLength="9" x="1145" y="338.5591">9</text><text fill="#000000" font-family="sans-serif" font-size="13" lengthAdjust="spacing" textLength="189" x="1158" y="338.5591">Each X block save a snapshot</text><polygon fill="#181818" points="48,368.7578,38,372.7578,48,376.7578,44,372.7578" style="stroke:#181818;stroke-width:1.0;"/><line style="stroke:#181818;stroke-width:1.0;" x1="42" x2="637" y1="372.7578" y2="372.7578"/><text fill="#000000" font-family="sans-serif" font-size="13" font-weight="bold" lengthAdjust="spacing" textLength="18" x="54" y="367.6919">10</text><text fill="#000000" font-family="sans-serif" font-size="13" lengthAdjust="spacing" textLength="370" x="76" y="367.6919">(Nothing or a signal to know it's finished or root hash TBD)</text><rect fill="#EEEEEE" height="3" style="stroke:#EEEEEE;stroke-width:1.0;" width="1469" x="0" y="401.3242"/><line style="stroke:#000000;stroke-width:1.0;" x1="0" x2="1469" y1="401.3242" y2="401.3242"/><line style="stroke:#000000;stroke-width:1.0;" x1="0" x2="1469" y1="404.3242" y2="404.3242"/><rect fill="#EEEEEE" height="23.1328" style="stroke:#000000;stroke-width:2.0;" width="249" x="610" y="390.7578"/><text fill="#000000" font-family="sans-serif" font-size="13" font-weight="bold" lengthAdjust="spacing" textLength="230" x="616" y="406.8247">Asking for a specific state at X</text><polygon fill="#181818" points="349,441.0234,359,445.0234,349,449.0234,353,445.0234" style="stroke:#181818;stroke-width:1.0;"/><line style="stroke:#181818;stroke-width:1.0;" x1="37" x2="355" y1="445.0234" y2="445.0234"/><text fill="#000000" font-family="sans-serif" font-size="13" font-weight="bold" lengthAdjust="spacing" textLength="9" x="44" y="439.9575">1</text><text fill="#000000" font-family="sans-serif" font-size="13" lengthAdjust="spacing" textLength="105" x="57" y="439.9575">Ask for a state X</text><polygon fill="#181818" points="1126,470.1563,1136,474.1563,1126,478.1563,1130,474.1563" style="stroke:#181818;stroke-width:1.0;"/><line style="stroke:#181818;stroke-width:1.0;" x1="361" x2="1132" y1="474.1563" y2="474.1563"/><text fill="#000000" font-family="sans-serif" font-size="13" font-weight="bold" lengthAdjust="spacing" textLength="9" x="368" y="469.0903">2</text><text fill="#000000" font-family="sans-serif" font-size="13" lengthAdjust="spacing" textLength="106" x="381" y="469.0903">Ask for the state</text><line style="stroke:#181818;stroke-width:1.0;" x1="1138" x2="1180" y1="503.2891" y2="503.2891"/><line style="stroke:#181818;stroke-width:1.0;" x1="1180" x2="1180" y1="503.2891" y2="516.2891"/><line style="stroke:#181818;stroke-width:1.0;" x1="1139" x2="1180" y1="516.2891" y2="516.2891"/><polygon fill="#181818" points="1149,512.2891,1139,516.2891,1149,520.2891,1145,516.2891" style="stroke:#181818;stroke-width:1.0;"/><text fill="#000000" font-family="sans-serif" font-size="13" font-weight="bold" lengthAdjust="spacing" textLength="9" x="1145" y="498.2231">3</text><text fill="#000000" font-family="sans-serif" font-size="13" lengthAdjust="spacing" textLength="144" x="1158" y="498.2231">Is it my current state ?</text><polygon fill="#008000" points="48,541.4219,38,545.4219,48,549.4219,44,545.4219" style="stroke:#008000;stroke-width:1.0;"/><line style="stroke:#008000;stroke-width:1.0;" x1="42" x2="1137" y1="545.4219" y2="545.4219"/><text fill="#000000" font-family="sans-serif" font-size="13" font-weight="bold" lengthAdjust="spacing" textLength="9" x="54" y="540.356">4</text><text fill="#000000" font-family="sans-serif" font-size="13" lengthAdjust="spacing" textLength="104" x="67" y="540.356">Return the state</text><line style="stroke:#FF0000;stroke-width:1.0;" x1="1138" x2="1180" y1="589.6875" y2="589.6875"/><line style="stroke:#FF0000;stroke-width:1.0;" x1="1180" x2="1180" y1="589.6875" y2="602.6875"/><line style="stroke:#FF0000;stroke-width:1.0;" x1="1139" x2="1180" y1="602.6875" y2="602.6875"/><polygon fill="#FF0000" points="1149,598.6875,1139,602.6875,1149,606.6875,1145,602.6875" style="stroke:#FF0000;stroke-width:1.0;"/><text fill="#000000" font-family="sans-serif" font-size="13" font-weight="bold" lengthAdjust="spacing" textLength="9" x="1145" y="577.0552">4</text><text fill="#000000" font-family="sans-serif" font-size="13" lengthAdjust="spacing" textLength="236" x="1158" y="569.4888">Can I rollback/rollforward to this state</text><text fill="#000000" font-family="sans-serif" font-size="13" lengthAdjust="spacing" textLength="157" x="1162" y="584.6216">using the trie logs I know</text><line style="stroke:#008000;stroke-width:1.0;" x1="1138" x2="1180" y1="631.8203" y2="631.8203"/><line style="stroke:#008000;stroke-width:1.0;" x1="1180" x2="1180" y1="631.8203" y2="644.8203"/><line style="stroke:#008000;stroke-width:1.0;" x1="1139" x2="1180" y1="644.8203" y2="644.8203"/><polygon fill="#008000" points="1149,640.8203,1139,644.8203,1149,648.8203,1145,644.8203" style="stroke:#008000;stroke-width:1.0;"/><text fill="#000000" font-family="sans-serif" font-size="13" font-weight="bold" lengthAdjust="spacing" textLength="9" x="1145" y="626.7544">5</text><text fill="#000000" font-family="sans-serif" font-size="13" lengthAdjust="spacing" textLength="116" x="1158" y="626.7544">If yes I apply them</text><polygon fill="#181818" points="48,669.9531,38,673.9531,48,677.9531,44,673.9531" style="stroke:#181818;stroke-width:1.0;"/><line style="stroke:#181818;stroke-width:1.0;" x1="42" x2="1137" y1="673.9531" y2="673.9531"/><text fill="#000000" font-family="sans-serif" font-size="13" font-weight="bold" lengthAdjust="spacing" textLength="9" x="54" y="668.8872">6</text><text fill="#000000" font-family="sans-serif" font-size="13" lengthAdjust="spacing" textLength="104" x="67" y="668.8872">Return the state</text><polygon fill="#FF0000" points="1412,699.0859,1422,703.0859,1412,707.0859,1416,703.0859" style="stroke:#FF0000;stroke-width:1.0;"/><line style="stroke:#FF0000;stroke-width:1.0;" x1="1138" x2="1418" y1="703.0859" y2="703.0859"/><text fill="#000000" font-family="sans-serif" font-size="13" font-weight="bold" lengthAdjust="spacing" textLength="9" x="1145" y="698.02">5</text><text fill="#000000" font-family="sans-serif" font-size="13" lengthAdjust="spacing" textLength="181" x="1158" y="698.02">Ask for the closest snapshot</text><polygon fill="#181818" points="1149,728.2188,1139,732.2188,1149,736.2188,1145,732.2188" style="stroke:#181818;stroke-width:1.0;"/><line style="stroke:#181818;stroke-width:1.0;" x1="1143" x2="1423" y1="732.2188" y2="732.2188"/><text fill="#000000" font-family="sans-serif" font-size="13" font-weight="bold" lengthAdjust="spacing" textLength="9" x="1155" y="727.1528">6</text><text fill="#000000" font-family="sans-serif" font-size="13" lengthAdjust="spacing" textLength="184" x="1168" y="727.1528">Return the clostest snapshot</text><line style="stroke:#181818;stroke-width:1.0;" x1="1138" x2="1180" y1="761.3516" y2="761.3516"/><line style="stroke:#181818;stroke-width:1.0;" x1="1180" x2="1180" y1="761.3516" y2="774.3516"/><line style="stroke:#181818;stroke-width:1.0;" x1="1139" x2="1180" y1="774.3516" y2="774.3516"/><polygon fill="#181818" points="1149,770.3516,1139,774.3516,1149,778.3516,1145,774.3516" style="stroke:#181818;stroke-width:1.0;"/><text fill="#000000" font-family="sans-serif" font-size="13" font-weight="bold" lengthAdjust="spacing" textLength="9" x="1145" y="756.2856">7</text><text fill="#000000" font-family="sans-serif" font-size="13" lengthAdjust="spacing" textLength="259" x="1158" y="756.2856">Is the closest snapshot the exact state ?</text><polygon fill="#008000" points="48,799.4844,38,803.4844,48,807.4844,44,803.4844" style="stroke:#008000;stroke-width:1.0;"/><line style="stroke:#008000;stroke-width:1.0;" x1="42" x2="1137" y1="803.4844" y2="803.4844"/><text fill="#000000" font-family="sans-serif" font-size="13" font-weight="bold" lengthAdjust="spacing" textLength="9" x="54" y="798.4185">8</text><text fill="#000000" font-family="sans-serif" font-size="13" lengthAdjust="spacing" textLength="104" x="67" y="798.4185">Return the state</text><polygon fill="#FF0000" points="1412,843.75,1422,847.75,1412,851.75,1416,847.75" style="stroke:#FF0000;stroke-width:1.0;"/><line style="stroke:#FF0000;stroke-width:1.0;" x1="1138" x2="1418" y1="847.75" y2="847.75"/><text fill="#000000" font-family="sans-serif" font-size="13" font-weight="bold" lengthAdjust="spacing" textLength="9" x="1145" y="835.1177">8</text><text fill="#000000" font-family="sans-serif" font-size="13" lengthAdjust="spacing" textLength="234" x="1158" y="827.5513">Ask for the trie logs to pass from the</text><text fill="#000000" font-family="sans-serif" font-size="13" lengthAdjust="spacing" textLength="155" x="1162" y="842.6841">snapshot to asked state</text><polygon fill="#181818" points="1149,872.8828,1139,876.8828,1149,880.8828,1145,876.8828" style="stroke:#181818;stroke-width:1.0;"/><line style="stroke:#181818;stroke-width:1.0;" x1="1143" x2="1423" y1="876.8828" y2="876.8828"/><text fill="#000000" font-family="sans-serif" font-size="13" font-weight="bold" lengthAdjust="spacing" textLength="9" x="1155" y="871.8169">9</text><text fill="#000000" font-family="sans-serif" font-size="13" lengthAdjust="spacing" textLength="122" x="1168" y="871.8169">Return the trie logs</text><line style="stroke:#181818;stroke-width:1.0;" x1="1138" x2="1180" y1="906.0156" y2="906.0156"/><line style="stroke:#181818;stroke-width:1.0;" x1="1180" x2="1180" y1="906.0156" y2="919.0156"/><line style="stroke:#181818;stroke-width:1.0;" x1="1139" x2="1180" y1="919.0156" y2="919.0156"/><polygon fill="#181818" points="1149,915.0156,1139,919.0156,1149,923.0156,1145,919.0156" style="stroke:#181818;stroke-width:1.0;"/><text fill="#000000" font-family="sans-serif" font-size="13" font-weight="bold" lengthAdjust="spacing" textLength="18" x="1145" y="900.9497">10</text><text fill="#000000" font-family="sans-serif" font-size="13" lengthAdjust="spacing" textLength="115" x="1167" y="900.9497">Apply the trie logs</text><polygon fill="#181818" points="48,944.1484,38,948.1484,48,952.1484,44,948.1484" style="stroke:#181818;stroke-width:1.0;"/><line style="stroke:#181818;stroke-width:1.0;" x1="42" x2="1137" y1="948.1484" y2="948.1484"/><text fill="#000000" font-family="sans-serif" font-size="13" font-weight="bold" lengthAdjust="spacing" textLength="18" x="54" y="943.0825">11</text><text fill="#000000" font-family="sans-serif" font-size="13" lengthAdjust="spacing" textLength="104" x="76" y="943.0825">Return the state</text><!--SRC=[jLHDZzCm4BtdLup4WTq3GaWWeKe5jPILAh5xW3si17kOEavZDR4ZUqBflsViVDcXXGM9dfh9cpSpxysaGKjAg0OrmItcQ16c7xe-bZKHRAj9sWA5Z61ZB47UMoLNEh-fa3Rh7kbZlu0-cNrIjOybk9KGRTqobR4ZBeebs0qIxj39c7E8PTbo2NVo2BlAY0Cibrc6BHdTrZjfuLNMg_3YNJJeeaj04YMO0dAc0ZBWyBk4guwdiKP8vvJUNsTJ8hFuMPZWrkIgE06L4iX7KETTlj8XMF0Ki5bd0SvfumWBk96-hWTfaqkNZQyczi-IMgiZp1cQBxuQLbL0rRuT9P2KqGvCbngL7rpfqr8ujunXYeez6f1dYddEuNK_PZwu4AN5pfx9PA7zO-nrd97M_OWirKFlRT0NmMbiN6be7AwtU05NTuPAjWoOXt5ghx7ozGxQ747HSmU5qigLClS8Qmn1YQw4-_NcEjuQHwO9UxLo1qzNT7oD55urVet4ZH0tvjVjAVl6H0DBI7v8bogLR01xcG9yBb0AtxA31FK9H6kjv7FfIhnFixu-srifzMCaLxHbNPcv1D7pQnvjncTb_ZZlvGDgsBAoLRL3SNZf__0aHxHvvxjoVNVVDBJ-kgOBukNZ3q_mwbBdixaBE4cVWarJXLEivqBzqwXlBeqQxMLiaQYCauwclOmFEcqvQiDdKPBs9vFFrGf1-GF5_t7zxLzACHd9RZVe-E2igSChDdngsl0N_C1Ns3Nm9Br6wj_hj1fsuNB2HIL-0W00]--></g></svg>